M48
;Layer_Color=9474304
;FILE_FORMAT=4:4
METRIC,LZ
;TYPE=PLATED
T1F00S00C0.3000
T2F00S00C0.4000
T4F00S00C0.6000
T5F00S00C0.8000
%
T01
X0090025Y0045175
X00894Y00459
X00849251Y00510749
X00849Y00541
X00836999Y00544578
X0083825Y00605
X00802701Y00624378
X00799999Y00641001
X00808749Y00638501
X0081125Y0066825
X00806917Y00675563
X00826Y0070425
X0084475Y00686
X00918749Y00746749
Y00776
Y00787251
X0077275Y006755
X0073175Y006795
X00733749Y00656499
X0073375Y006435
X00744Y00637904
X00740165Y00630318
X007435Y006225
Y006085
X0072825Y0060625
X0075675Y0059725
X0077425Y0056625
X0078075Y0054075
X007925Y006475
X00692828Y00620575
X00693077Y00678827
X00649413Y00652464
Y00642214
X0058225Y0064375
Y0063125
Y0065625
Y0066875
X00844755Y00830957
X0085375Y00831
T02
X00878501Y00402001
X00860501Y00423251
X00840396Y00441488
X00822911Y00460116
X00830851Y00491413
X00824676Y00501619
X00812Y0049675
X00862885Y00501193
X00862883Y00490695
X00873381Y00490693
X00873382Y00501191
X00873384Y00511688
X00883882Y00511687
X0088388Y00501189
X00894378Y00501188
X00894379Y00511685
X00904877Y00511684
X00904875Y00501186
X00904874Y00490689
X00894376Y0049069
X00883878Y00490692
X00862887Y0051169
X0086371Y00553671
X00863979Y00574071
X00906162Y00573664
X00913019Y0056593
X00915491Y00556841
X00942001Y00548751
X00942251Y00538751
X0093975Y0048975
X00802751Y00593751
X00822501Y00725001
X00823001Y00733251
X00822936Y00742997
X00826751Y00751251
X00839471Y00746836
X00839001Y00728001
X00815483Y00788544
X00862883Y00788316
X00873381Y00788315
X00883878Y00788313
X00894376Y00788311
X00904874Y0078831
X00771823Y00583037
X00638413Y00622464
X00638663Y00677714
X0080775Y0081025
X00818501Y00810251
X00837Y007975
X00862885Y00798814
X00862887Y00809312
X00873384Y0080931
X00883882Y00809308
X0088388Y00798811
X00894378Y00798809
X00894379Y00809307
X00904877Y00809305
X00904875Y00798808
X00873382Y00798812
X009375Y007985
X00840631Y00859556
X00823001Y00842251
X00857868Y0087729
X0087405Y0089681
T04
X006095Y006211
Y006789
T05
X00803982Y00442464
X00787896Y00458551
X00769485Y00476962
X00753601Y00493199
X006985Y00636982
Y00663018
X00753601Y00806801
X00769485Y00823038
X00787896Y00841449
X00803982Y00857536
M30
