%FSLAX44Y44*%
%MOMM*%
G71*
G01*
G75*
%ADD13C,0.7000*%
%ADD15C,0.2000*%
%ADD42R,0.6000X0.5000*%
%ADD43R,0.5000X0.6000*%
%ADD44R,0.8000X1.3000*%
%ADD45R,1.2000X0.9000*%
%ADD46R,5.2000X3.0000*%
%ADD47R,0.3000X1.6500*%
%ADD48R,0.9000X1.3000*%
%ADD49O,1.3000X0.7000*%
%ADD50O,0.5500X1.5500*%
%ADD51O,1.5500X0.5500*%
%ADD52R,0.6000X0.7000*%
%ADD53R,1.4000X0.6000*%
%ADD54R,1.8000X0.6000*%
%AMOCTAGOND55*
4,1,8,-1.6000,-0.4750,-1.6000,0.4750,-1.1250,0.9500,1.1250,0.9500,1.6000,0.4750,1.6000,-0.4750,1.1250,-0.9500,-1.1250,-0.9500,-1.6000,-0.4750,0.0*
%
%ADD55OCTAGOND55*%

%AMROTATEDRECTD56*
4,1,4,-0.0354,0.3889,0.3889,-0.0354,0.0354,-0.3889,-0.3889,0.0354,-0.0354,0.3889,0.0*
%
%ADD56ROTATEDRECTD56*%

%ADD57R,0.8000X0.8000*%
%ADD58R,0.8000X0.8000*%
%AMROTATEDRECTD59*
4,1,4,0.3889,0.0354,-0.0354,-0.3889,-0.3889,-0.0354,0.0354,0.3889,0.3889,0.0354,0.0*
%
%ADD59ROTATEDRECTD59*%

%ADD60R,0.4000X1.9000*%
%ADD61R,2.4000X1.9000*%
%ADD62R,1.7000X0.7000*%
%ADD63C,0.5000*%
%ADD64C,0.3000*%
%ADD65C,1.6000*%
%ADD66C,0.9000*%
%ADD67O,1.6000X1.0000*%
%ADD68O,2.0000X1.0000*%
%ADD69C,0.8000*%
G36*
X863318Y877745D02*
X863319Y877747D01*
X870318Y870748D01*
X873221Y873651D01*
X874394Y873165D01*
Y859106D01*
X874394Y859106D01*
X874627Y857935D01*
X874846Y857608D01*
X874167Y856338D01*
X864738D01*
X862844Y858231D01*
Y862774D01*
X866503Y866433D01*
X859432Y873504D01*
X853068Y867140D01*
X851902Y866888D01*
X845361Y873430D01*
X841702Y869771D01*
X835006D01*
X834520Y870945D01*
X844979Y881404D01*
X859659D01*
X863318Y877745D01*
D02*
G37*
G36*
X846068Y859995D02*
X846069Y859997D01*
X852601Y853465D01*
X852076Y852195D01*
X845742D01*
X841682Y856254D01*
X835318Y849890D01*
X834153Y849638D01*
X827611Y856180D01*
X824644Y853214D01*
X824429Y853257D01*
X824011Y854634D01*
X833030Y863654D01*
X842409D01*
X846068Y859995D01*
D02*
G37*
G36*
X828318Y842745D02*
X828319Y842747D01*
X834472Y836594D01*
X834487Y835370D01*
X833436Y834309D01*
X828377D01*
X824182Y838504D01*
X817818Y832140D01*
X816653Y831888D01*
X811433Y837107D01*
X820729Y846404D01*
X824659D01*
X828318Y842745D01*
D02*
G37*
G36*
X839469Y829347D02*
X840092Y827841D01*
X841639Y826294D01*
X843661Y825457D01*
X844689D01*
Y815805D01*
X844689D01*
X844752Y815751D01*
Y805751D01*
X843482Y805750D01*
X842500D01*
Y802281D01*
X841230Y801755D01*
X840399Y802587D01*
X838194Y803500D01*
X835807D01*
X835500Y803705D01*
Y805750D01*
X823500D01*
Y802337D01*
X810999D01*
Y802749D01*
X802269D01*
X801999Y802749D01*
X800999Y802749D01*
X800729Y802749D01*
X791999D01*
Y800809D01*
X788500D01*
Y803251D01*
X785104D01*
X784718Y804521D01*
X784894Y804638D01*
X808034Y827778D01*
X810818Y824995D01*
X810819Y824997D01*
X817818Y817998D01*
X824182Y824362D01*
X824889Y825069D01*
X828011Y828191D01*
X835250D01*
X835250Y828191D01*
X836421Y828424D01*
X837413Y829087D01*
X838082Y829756D01*
X839469Y829347D01*
D02*
G37*
G36*
X947451Y846934D02*
Y731473D01*
X942002Y731205D01*
X934081Y730030D01*
X926313Y728085D01*
X918774Y725387D01*
X911535Y721963D01*
X904666Y717847D01*
X898234Y713076D01*
X892301Y707699D01*
X886924Y701765D01*
X882153Y695334D01*
X878037Y688465D01*
X874613Y681226D01*
X871915Y673687D01*
X869969Y665919D01*
X868794Y657998D01*
X868402Y650000D01*
X868794Y642002D01*
X869969Y634081D01*
X871915Y626313D01*
X874613Y618774D01*
X878037Y611535D01*
X882153Y604666D01*
X886924Y598235D01*
X892301Y592301D01*
X898234Y586924D01*
X904666Y582154D01*
X911535Y578037D01*
X918774Y574613D01*
X926313Y571915D01*
X934081Y569970D01*
X942002Y568795D01*
X947451Y568527D01*
Y453066D01*
X889107Y394721D01*
X887181Y395135D01*
X871908Y399393D01*
X856919Y404565D01*
X842270Y410633D01*
X828013Y417574D01*
X814202Y425364D01*
X804987Y431322D01*
X805483Y432514D01*
X807842Y433146D01*
X810123Y434462D01*
X811984Y436324D01*
X813301Y438604D01*
X813516Y439405D01*
X816769D01*
X842301Y413873D01*
X843294Y413210D01*
X844464Y412977D01*
X844464Y412977D01*
X862200D01*
X865859Y409318D01*
X872066Y415526D01*
X873112Y416068D01*
X873819Y415361D01*
X880183Y408997D01*
X887254Y416068D01*
X886235Y417087D01*
X889293Y420145D01*
X889293Y420145D01*
X889956Y421137D01*
X890189Y422308D01*
X890189Y422308D01*
Y453374D01*
X891459Y454100D01*
X892906Y453500D01*
X894312D01*
X894750Y452844D01*
Y450656D01*
X895587Y448634D01*
X897134Y447087D01*
X899156Y446250D01*
X901344D01*
X903365Y447087D01*
X904913Y448634D01*
X905750Y450656D01*
Y452844D01*
X904913Y454865D01*
X903365Y456413D01*
X903189Y456486D01*
Y463189D01*
X910130D01*
Y476137D01*
X914016D01*
Y474264D01*
X923016D01*
Y478821D01*
X923104Y479264D01*
Y479764D01*
X923016Y480207D01*
Y484264D01*
X923016D01*
X923016Y484264D01*
Y494264D01*
X914016D01*
Y484264D01*
X914016D01*
X914016Y484264D01*
Y482254D01*
X910130D01*
Y483689D01*
X896630D01*
Y483689D01*
X890630D01*
Y483689D01*
X883630D01*
Y483689D01*
X871130D01*
Y483689D01*
X864130D01*
Y483689D01*
X859762D01*
X859458Y483750D01*
X854813D01*
X853751Y484251D01*
Y494251D01*
X852069D01*
Y496251D01*
X853751D01*
Y506251D01*
X853751D01*
X853393Y507114D01*
X853913Y507634D01*
X854751Y509655D01*
Y511843D01*
X853913Y513865D01*
X852366Y515412D01*
X850345Y516249D01*
X848157D01*
X846135Y515412D01*
X844588Y513865D01*
X843751Y511843D01*
Y509655D01*
X844588Y507634D01*
X844701Y507521D01*
X844175Y506251D01*
X843751D01*
Y506251D01*
X840739D01*
X837989Y509001D01*
X840744Y511756D01*
X841739Y513244D01*
X842088Y515000D01*
Y518663D01*
X848999D01*
X849443Y518751D01*
X853999D01*
Y527481D01*
X853999Y527751D01*
X853999D01*
X853999Y528751D01*
X853999D01*
Y537751D01*
X855191Y537941D01*
X857630D01*
Y518689D01*
X903630D01*
Y528595D01*
X903699Y528939D01*
Y538652D01*
X904728Y539681D01*
X915912D01*
Y531500D01*
X913975D01*
Y514500D01*
X913975D01*
X914500Y513750D01*
Y496750D01*
X926500D01*
Y513750D01*
X926975Y514500D01*
X926975D01*
Y531500D01*
X925088D01*
Y543250D01*
X924998Y543701D01*
Y551999D01*
X915998D01*
Y546819D01*
X903250D01*
X901884Y546547D01*
X900727Y545773D01*
X898077Y543124D01*
X896807Y543650D01*
Y549749D01*
X899748D01*
Y559749D01*
X896807D01*
Y571502D01*
X896807Y571502D01*
X896574Y572672D01*
X895911Y573665D01*
X872163Y597413D01*
X871171Y598076D01*
X870000Y598309D01*
X870000Y598309D01*
X834517D01*
X830633Y602193D01*
X830843Y603250D01*
Y613250D01*
X830474Y615103D01*
X829425Y616675D01*
X827853Y617724D01*
X826000Y618093D01*
X824147Y617724D01*
X822836Y616849D01*
X822000Y616746D01*
X821164Y616849D01*
X819853Y617724D01*
X818000Y618093D01*
X816147Y617724D01*
X814836Y616849D01*
X813425Y616675D01*
X811853Y617724D01*
X810000Y618093D01*
X808147Y617724D01*
X806575Y616675D01*
X805526Y615103D01*
X805157Y613250D01*
Y603250D01*
X805526Y601397D01*
X806575Y599826D01*
X806941Y599581D01*
Y595750D01*
X806941Y595750D01*
X807174Y594580D01*
X807837Y593587D01*
X812442Y588982D01*
X811956Y587809D01*
X802267D01*
X792706Y597369D01*
X793332Y598540D01*
X794000Y598407D01*
X795853Y598776D01*
X797425Y599826D01*
X798474Y601397D01*
X798843Y603250D01*
Y613250D01*
X798474Y615103D01*
X797425Y616675D01*
X795853Y617724D01*
X794000Y618093D01*
X792147Y617724D01*
X790575Y616675D01*
X789164Y616849D01*
X787853Y617724D01*
X786000Y618093D01*
X784147Y617724D01*
X783708Y617431D01*
X782588Y618030D01*
Y653849D01*
X789244Y660506D01*
X790239Y661994D01*
X790588Y663750D01*
Y685969D01*
X790843Y687250D01*
Y697250D01*
X790684Y698051D01*
Y698084D01*
X795260Y702661D01*
X797412D01*
Y698531D01*
X797157Y697250D01*
Y687250D01*
X797526Y685397D01*
X798576Y683826D01*
X800147Y682776D01*
X802000Y682407D01*
X803853Y682776D01*
X805425Y683826D01*
X806474Y685397D01*
X806843Y687250D01*
Y697250D01*
X806588Y698531D01*
Y706747D01*
X806537Y707002D01*
X806587Y707249D01*
X806498Y707692D01*
Y707805D01*
X806587Y708249D01*
Y753250D01*
X813500D01*
X819250Y759000D01*
Y770500D01*
X813500Y776250D01*
X811087D01*
Y793161D01*
X823500D01*
Y788750D01*
X835500D01*
Y791295D01*
X835807Y791500D01*
X838194D01*
X840399Y792413D01*
X841230Y793245D01*
X842500Y792719D01*
Y789073D01*
X842025Y788000D01*
X842025Y788000D01*
X842025Y788000D01*
Y771000D01*
X842939D01*
X844003Y770502D01*
Y761773D01*
X844003Y760503D01*
X844003D01*
Y760502D01*
X844003D01*
Y750502D01*
X853003D01*
Y751937D01*
X862006D01*
X863371Y752209D01*
X864529Y752982D01*
X869801Y758254D01*
X871071Y757756D01*
Y754397D01*
X848839Y732165D01*
X848176Y731172D01*
X847943Y730002D01*
X847943Y730002D01*
Y723251D01*
X845002D01*
Y713251D01*
X847943D01*
Y692005D01*
X846673Y691157D01*
X845844Y691500D01*
X843656D01*
X841635Y690663D01*
X840087Y689116D01*
X839250Y687094D01*
Y684906D01*
X839564Y684149D01*
X838858Y683093D01*
X835000D01*
X833147Y682725D01*
X831575Y681675D01*
X830526Y680104D01*
X830157Y678250D01*
X830526Y676397D01*
X831575Y674826D01*
X831402Y673414D01*
X831331Y673309D01*
X830000D01*
X828829Y673076D01*
X827837Y672413D01*
X827837Y672413D01*
X810483Y655059D01*
X800062D01*
X800062Y655059D01*
X800062Y655059D01*
X797000D01*
X797000Y655059D01*
X795829Y654826D01*
X794837Y654163D01*
X794837Y654163D01*
X793651Y652977D01*
X793594Y653000D01*
X791406D01*
X789385Y652163D01*
X787837Y650615D01*
X787000Y648594D01*
Y646406D01*
X787837Y644385D01*
X789385Y642837D01*
X791406Y642000D01*
X793594D01*
X794499Y641000D01*
Y639907D01*
X795337Y637885D01*
X796884Y636338D01*
X798905Y635501D01*
X801093D01*
X802434Y636056D01*
X804009Y635573D01*
X804087Y635385D01*
X805634Y633838D01*
X807655Y633001D01*
X809843D01*
X811865Y633838D01*
X813412Y635385D01*
X814249Y637407D01*
Y639595D01*
X814211Y639686D01*
X825717Y651191D01*
X830689D01*
X831471Y649979D01*
X831402Y649414D01*
X830526Y648103D01*
X830157Y646250D01*
X830526Y644397D01*
X831402Y643086D01*
X831505Y642250D01*
X831402Y641414D01*
X830526Y640103D01*
X830157Y638250D01*
X830526Y636397D01*
X831402Y635086D01*
X831505Y634250D01*
X831402Y633414D01*
X830526Y632103D01*
X830157Y630250D01*
X830526Y628397D01*
X831402Y627086D01*
X831505Y626250D01*
X831402Y625414D01*
X830526Y624103D01*
X830157Y622250D01*
X830526Y620397D01*
X831575Y618825D01*
X833147Y617776D01*
X835000Y617407D01*
X845000D01*
X846853Y617776D01*
X848425Y618825D01*
X849474Y620397D01*
X849843Y622250D01*
X849779Y622572D01*
X864913Y637705D01*
X864913Y637705D01*
X865576Y638698D01*
X865809Y639868D01*
X865809Y639868D01*
Y695233D01*
X870913Y700337D01*
X871576Y701329D01*
X871809Y702500D01*
X872720Y703249D01*
X874748D01*
Y713249D01*
X871807D01*
Y729782D01*
X895793Y753767D01*
X895793Y753767D01*
X896456Y754760D01*
X896689Y755930D01*
X896689Y755930D01*
Y758597D01*
X897959Y758982D01*
X897993Y758931D01*
X903588Y753336D01*
X903588Y753336D01*
X904580Y752673D01*
X905751Y752440D01*
X905751Y752441D01*
X914249D01*
Y750499D01*
X914249Y750499D01*
X913886Y749380D01*
X913249Y747843D01*
Y745655D01*
X914087Y743633D01*
X915634Y742086D01*
X917655Y741249D01*
X919843D01*
X921865Y742086D01*
X923412Y743633D01*
X924249Y745655D01*
Y747843D01*
X923613Y749380D01*
X923565Y749527D01*
X924436Y750499D01*
X933249D01*
Y755056D01*
X933337Y755499D01*
Y767249D01*
Y792460D01*
X933419Y792562D01*
X934607Y793204D01*
X936307Y792500D01*
X938693D01*
X940899Y793413D01*
X942587Y795101D01*
X943500Y797307D01*
Y799694D01*
X942587Y801899D01*
X940899Y803587D01*
X938693Y804500D01*
X936307D01*
X934427Y803721D01*
X933249Y803499D01*
X933249Y803499D01*
X933249Y803499D01*
X924519D01*
X924249Y803499D01*
Y803499D01*
X923249Y803499D01*
Y803499D01*
X921808D01*
Y805499D01*
X923249D01*
Y815499D01*
X921808D01*
Y817751D01*
X921575Y818921D01*
X920912Y819914D01*
X920912Y819914D01*
X919354Y821472D01*
X918362Y822135D01*
X917191Y822368D01*
X917191Y822368D01*
X910130D01*
Y836811D01*
X903189D01*
Y846620D01*
X903189Y846620D01*
X902956Y847791D01*
X902293Y848783D01*
X892072Y859004D01*
X891079Y859667D01*
X889909Y859900D01*
X889909Y859900D01*
X880984D01*
X880512Y860372D01*
Y880942D01*
X883753Y884183D01*
X876682Y891254D01*
X870318Y884890D01*
X869153Y884638D01*
X862611Y891180D01*
X858952Y887521D01*
X843712D01*
X843712Y887521D01*
X842542Y887288D01*
X841550Y886625D01*
X815519Y860595D01*
X813516D01*
X813301Y861396D01*
X811984Y863676D01*
X810123Y865538D01*
X807842Y866854D01*
X805483Y867486D01*
X804987Y868678D01*
X814202Y874636D01*
X828013Y882426D01*
X842270Y889367D01*
X856919Y895435D01*
X871908Y900607D01*
X887181Y904865D01*
X889107Y905278D01*
X947451Y846934D01*
D02*
G37*
G36*
X857630Y816311D02*
X906834D01*
X907130Y816252D01*
X907130Y816252D01*
X908293D01*
X908302Y816250D01*
X908302Y816250D01*
X913290D01*
X914249Y815499D01*
Y805499D01*
X915690D01*
Y803499D01*
X914249D01*
Y793499D01*
X915690D01*
Y791937D01*
X915634Y791914D01*
X914087Y790366D01*
X913249Y788345D01*
Y786157D01*
X914087Y784135D01*
X915634Y782588D01*
X916299Y782313D01*
Y780938D01*
X915634Y780663D01*
X914087Y779116D01*
X913249Y777094D01*
Y774906D01*
X912724Y774119D01*
X910130D01*
Y781311D01*
X884130D01*
Y781311D01*
X877130D01*
Y781311D01*
X864130D01*
Y771405D01*
X864062Y771061D01*
Y762608D01*
X860528Y759074D01*
X853901D01*
X853003Y759972D01*
Y760502D01*
X853003D01*
Y760503D01*
X853003D01*
Y770502D01*
X854067Y771000D01*
X855025D01*
Y788000D01*
X855025D01*
X854500Y788750D01*
Y805750D01*
X853752Y805751D01*
Y815751D01*
X853752D01*
X853689Y815805D01*
Y817746D01*
X857630D01*
Y816311D01*
D02*
G37*
G36*
X744912Y811751D02*
X744283Y810661D01*
X743601Y808118D01*
Y805484D01*
X744283Y802941D01*
X745599Y800661D01*
X747461Y798799D01*
X749741Y797483D01*
X752285Y796801D01*
X754918D01*
X757461Y797483D01*
X759741Y798799D01*
X761603Y800661D01*
X762920Y802941D01*
X763134Y803742D01*
X777434D01*
X778500Y803251D01*
X778500Y802472D01*
Y792251D01*
X788500D01*
Y794692D01*
X791999D01*
Y792749D01*
X800641D01*
X800999Y792749D01*
X801911Y791885D01*
Y776250D01*
X789000D01*
X783250Y770500D01*
Y769750D01*
X765250D01*
Y769338D01*
X752500D01*
Y770750D01*
X740500D01*
Y769338D01*
X735500D01*
X733744Y768989D01*
X732256Y767994D01*
X714506Y750244D01*
X713511Y748756D01*
X713162Y747000D01*
Y737250D01*
X709750D01*
Y724250D01*
X725750D01*
Y737250D01*
X722338D01*
Y745099D01*
X737401Y760162D01*
X740500D01*
Y758750D01*
X752500D01*
Y760162D01*
X765250D01*
Y759750D01*
X783250D01*
Y759000D01*
X789000Y753250D01*
X797410D01*
Y711837D01*
X793360D01*
X791604Y711488D01*
X791270Y711264D01*
X790000Y711943D01*
Y731250D01*
X782000D01*
Y712576D01*
X776507Y707083D01*
X775844Y706090D01*
X775611Y704920D01*
X775611Y704920D01*
Y701367D01*
X774836Y700848D01*
X774000Y700745D01*
X773164Y700848D01*
X772389Y701367D01*
Y704920D01*
X772389Y704920D01*
X772156Y706090D01*
X771493Y707083D01*
X771493Y707083D01*
X766000Y712576D01*
Y731250D01*
X758000D01*
Y708250D01*
X761674D01*
X766272Y703653D01*
Y700220D01*
X765526Y699103D01*
X765157Y697250D01*
Y687250D01*
X765526Y685397D01*
X766575Y683826D01*
X768147Y682776D01*
X769136Y682579D01*
X769011Y681309D01*
X764669D01*
X764425Y681675D01*
X762853Y682724D01*
X761000Y683093D01*
X751000D01*
X749708Y682836D01*
X749082Y684007D01*
X750075Y684999D01*
X755249D01*
Y694999D01*
X746769D01*
X746249Y694999D01*
X745499Y695959D01*
Y705999D01*
X735499D01*
Y694999D01*
X736249D01*
Y684999D01*
X741326D01*
X741941Y684250D01*
X741941Y684250D01*
Y665000D01*
X741941Y665000D01*
X742174Y663829D01*
X742837Y662837D01*
X745146Y660528D01*
X746139Y659865D01*
X746995Y659695D01*
X747575Y658826D01*
X747402Y657414D01*
X746526Y656103D01*
X746157Y654250D01*
X746526Y652397D01*
X747402Y651086D01*
X747505Y650250D01*
X747402Y649414D01*
X746526Y648103D01*
X746157Y646250D01*
X746526Y644397D01*
X746721Y644105D01*
X745879Y643079D01*
X745094Y643404D01*
X742906D01*
X740884Y642567D01*
X740423Y642105D01*
X740199Y642163D01*
X739250Y642728D01*
Y644594D01*
X738413Y646616D01*
X736865Y648163D01*
X734844Y649000D01*
X732656D01*
X730635Y648163D01*
X730424Y647952D01*
X729251Y648438D01*
Y648501D01*
X720521D01*
X720251Y648501D01*
X719251D01*
X718981Y648501D01*
X710251D01*
Y640436D01*
X709769Y640040D01*
X709768Y640040D01*
X708033D01*
X707819Y640841D01*
X706502Y643122D01*
X704640Y644983D01*
X702360Y646300D01*
X699817Y646982D01*
X697184D01*
X694640Y646300D01*
X692360Y644983D01*
X690498Y643122D01*
X689182Y640841D01*
X688500Y638298D01*
Y635665D01*
X689182Y633122D01*
X690498Y630841D01*
X692360Y628979D01*
X694640Y627663D01*
X697184Y626982D01*
X699817D01*
X702360Y627663D01*
X704640Y628979D01*
X706502Y630841D01*
X707480Y632535D01*
X708750Y632195D01*
Y626000D01*
X709188D01*
X710251Y625501D01*
Y615501D01*
X718981D01*
X719251Y615501D01*
X720251Y615501D01*
X720521Y615501D01*
X725191D01*
Y610936D01*
X725135Y610913D01*
X723587Y609366D01*
X722750Y607344D01*
Y605156D01*
X723587Y603134D01*
X725135Y601587D01*
X727156Y600750D01*
X729344D01*
X731366Y601587D01*
X732913Y603134D01*
X733750Y605156D01*
Y607344D01*
X732913Y609366D01*
X731366Y610913D01*
X731309Y610936D01*
Y617001D01*
X731076Y618172D01*
X730413Y619164D01*
X729251Y620326D01*
Y625501D01*
X721813D01*
X720750Y626000D01*
X720750Y626771D01*
Y637231D01*
X720750Y638000D01*
X721813Y638501D01*
X729251D01*
Y638562D01*
X730424Y639048D01*
X730635Y638837D01*
X732656Y638000D01*
X734844D01*
X736865Y638837D01*
X737327Y639299D01*
X737551Y639241D01*
X738500Y638676D01*
Y636810D01*
X738934Y635762D01*
X737049Y634981D01*
X735502Y633434D01*
X734665Y631412D01*
Y629224D01*
X735502Y627203D01*
X737049Y625656D01*
X738590Y625018D01*
X738000Y623594D01*
Y621406D01*
X738837Y619384D01*
X740385Y617837D01*
X742406Y617000D01*
X744594D01*
X746616Y617837D01*
X747592Y618814D01*
X749147Y617776D01*
X751000Y617407D01*
X761000D01*
X762853Y617776D01*
X764425Y618825D01*
X765474Y620397D01*
X765843Y622250D01*
X765474Y624103D01*
X764598Y625414D01*
X764425Y626825D01*
X765474Y628397D01*
X765843Y630250D01*
X765474Y632103D01*
X764425Y633675D01*
X764598Y635086D01*
X765474Y636397D01*
X765843Y638250D01*
X765474Y640103D01*
X764598Y641414D01*
X764495Y642250D01*
X764598Y643086D01*
X765474Y644397D01*
X765843Y646250D01*
X765474Y648103D01*
X764598Y649414D01*
X764495Y650250D01*
X764598Y651086D01*
X765474Y652397D01*
X765843Y654250D01*
X765474Y656103D01*
X764598Y657414D01*
X764495Y658250D01*
X764598Y659086D01*
X765474Y660397D01*
X765843Y662250D01*
X765474Y664103D01*
X764598Y665414D01*
X764495Y666250D01*
X764598Y667086D01*
X765474Y668397D01*
X765843Y670250D01*
X765474Y672103D01*
X764598Y673414D01*
X764529Y673979D01*
X765311Y675191D01*
X767250D01*
Y674406D01*
X768087Y672384D01*
X769634Y670837D01*
X771656Y670000D01*
X773844D01*
X775865Y670837D01*
X777413Y672384D01*
X778250Y674406D01*
Y676594D01*
X777413Y678615D01*
X775865Y680163D01*
X773844Y681000D01*
X771677D01*
X771641Y681008D01*
X771062Y681323D01*
X771265Y682659D01*
X771853Y682776D01*
X773164Y683652D01*
X774000Y683755D01*
X774836Y683652D01*
X776147Y682776D01*
X778000Y682407D01*
X779853Y682776D01*
X780292Y683069D01*
X781412Y682470D01*
Y665650D01*
X774756Y658994D01*
X773761Y657506D01*
X773412Y655750D01*
Y618030D01*
X772292Y617431D01*
X771853Y617724D01*
X770000Y618093D01*
X768147Y617724D01*
X766575Y616675D01*
X765526Y615103D01*
X765157Y613250D01*
Y611309D01*
X748290D01*
X748163Y611615D01*
X746616Y613163D01*
X744594Y614000D01*
X742406D01*
X740385Y613163D01*
X738837Y611615D01*
X738000Y609594D01*
Y607406D01*
X738837Y605384D01*
X740385Y603837D01*
X742406Y603000D01*
X744594D01*
X746616Y603837D01*
X747969Y605191D01*
X765157D01*
Y603250D01*
X765526Y601397D01*
X766575Y599826D01*
X768147Y598776D01*
X770000Y598407D01*
X771853Y598776D01*
X772292Y599069D01*
X773412Y598470D01*
Y596590D01*
X766752D01*
X764996Y596241D01*
X763507Y595246D01*
X763064Y594803D01*
X761987Y595522D01*
X762250Y596156D01*
Y598344D01*
X761413Y600365D01*
X759865Y601913D01*
X757844Y602750D01*
X755656D01*
X753634Y601913D01*
X752087Y600365D01*
X751250Y598344D01*
Y596156D01*
X751273Y596099D01*
X750586Y595412D01*
X749923Y594419D01*
X749690Y593249D01*
X749690Y593249D01*
Y588499D01*
X748249D01*
Y578499D01*
X749690D01*
Y576502D01*
X747749D01*
Y567772D01*
X747749Y567502D01*
Y566502D01*
X747749Y566232D01*
Y557502D01*
X749690D01*
Y517766D01*
X746989Y515065D01*
X745965Y515165D01*
X744146Y516381D01*
X742000Y516808D01*
X736000D01*
X733854Y516381D01*
X732035Y515165D01*
X730819Y513346D01*
X730392Y511200D01*
X730819Y509054D01*
X732035Y507235D01*
X733854Y506019D01*
X736000Y505592D01*
X742000D01*
X744146Y506019D01*
X745965Y507235D01*
X746571Y508141D01*
X747450D01*
X747450Y508141D01*
X748621Y508374D01*
X749613Y509037D01*
X754912Y514336D01*
X755575Y515328D01*
X755807Y516499D01*
Y556604D01*
X756570Y557366D01*
X757857Y557214D01*
X758161Y556402D01*
Y532501D01*
X758510Y530745D01*
X759505Y529257D01*
X780756Y508006D01*
X782244Y507011D01*
X784000Y506662D01*
X789892D01*
X790854Y506019D01*
X793000Y505592D01*
X799000D01*
X801146Y506019D01*
X802110Y506664D01*
X807411D01*
Y500646D01*
X806913Y500149D01*
X806000Y497943D01*
Y495556D01*
X806913Y493351D01*
X808601Y491664D01*
X810807Y490750D01*
X813194D01*
X815399Y491664D01*
X817087Y493351D01*
X818000Y495556D01*
Y497943D01*
X817087Y500149D01*
X816587Y500648D01*
Y506664D01*
X827349D01*
X834751Y499262D01*
Y496251D01*
X843481D01*
X843751Y496251D01*
Y496251D01*
X844682Y496251D01*
X845949Y496085D01*
X845952Y496085D01*
Y494251D01*
X844751D01*
Y484251D01*
X845952D01*
Y482249D01*
X845952Y482249D01*
X846185Y481079D01*
X846848Y480086D01*
X846848Y480086D01*
X848406Y478528D01*
X848406Y478528D01*
X849398Y477865D01*
X850569Y477632D01*
X850569Y477632D01*
X857630D01*
Y464559D01*
X849267D01*
X845163Y468663D01*
X844171Y469326D01*
X843000Y469559D01*
X843000Y469559D01*
X832819D01*
X832504Y470318D01*
Y470318D01*
X826140Y476682D01*
X826140D01*
X825433Y477389D01*
X819069Y483753D01*
X811998Y476682D01*
X811816Y476753D01*
X810443Y475381D01*
X790462Y495362D01*
X789470Y496025D01*
X788299Y496258D01*
X788299Y496258D01*
X763134D01*
X762920Y497059D01*
X761603Y499339D01*
X759741Y501201D01*
X757461Y502518D01*
X754918Y503199D01*
X752285D01*
X749741Y502518D01*
X747461Y501201D01*
X745599Y499339D01*
X744283Y497059D01*
X743601Y494516D01*
Y491883D01*
X744283Y489339D01*
X744912Y488249D01*
X743867Y487520D01*
X743370Y488116D01*
X733973Y500887D01*
X725363Y514203D01*
X717574Y528013D01*
X712111Y539234D01*
X712062Y539212D01*
X710433Y542261D01*
X707621Y545687D01*
X704195Y548498D01*
X700286Y550588D01*
X696045Y551874D01*
X691634Y552309D01*
Y552249D01*
X566439D01*
X566421Y552245D01*
X563039Y552578D01*
X559763Y553572D01*
X556743Y555186D01*
X554097Y557358D01*
X551925Y560005D01*
X550311Y563024D01*
X549317Y566300D01*
X548984Y569682D01*
X548988Y569700D01*
X548988Y729700D01*
X548984Y729718D01*
X549317Y733100D01*
X550311Y736376D01*
X551925Y739395D01*
X554097Y742042D01*
X556743Y744214D01*
X559763Y745828D01*
X563039Y746821D01*
X566421Y747154D01*
X566439Y747151D01*
X691356D01*
Y747091D01*
X695766Y747525D01*
X700007Y748812D01*
X703916Y750901D01*
X707342Y753713D01*
X710154Y757139D01*
X711784Y760188D01*
X711844Y760218D01*
X711844Y760218D01*
X712365Y761289D01*
X717574Y771986D01*
X725363Y785797D01*
X733973Y799113D01*
X743370Y811884D01*
X743867Y812480D01*
X744912Y811751D01*
D02*
G37*
G36*
X798653Y582771D02*
X798504Y582038D01*
X798177Y581501D01*
X785500D01*
Y576559D01*
X781501D01*
X781501Y576560D01*
X780330Y576327D01*
X779338Y575664D01*
X779338Y575664D01*
X775401Y571726D01*
X775344Y571750D01*
X773156D01*
X771134Y570913D01*
X769587Y569366D01*
X768750Y567344D01*
Y565156D01*
X769587Y563134D01*
X771134Y561587D01*
X771191Y561564D01*
Y535750D01*
X771191Y535750D01*
X771424Y534580D01*
X772087Y533587D01*
X782980Y522694D01*
X782980Y522694D01*
X783973Y522031D01*
X785143Y521798D01*
X787810D01*
X787819Y521754D01*
X789035Y519935D01*
X790854Y518719D01*
X793000Y518292D01*
X799000D01*
X801146Y518719D01*
X802965Y519935D01*
X804181Y521754D01*
X804608Y523900D01*
X804181Y526046D01*
X802965Y527865D01*
X801146Y529081D01*
X799000Y529508D01*
X793000D01*
X790854Y529081D01*
X789110Y527915D01*
X786410D01*
X780502Y533824D01*
X780960Y534996D01*
X782045Y535129D01*
X782316Y534858D01*
X782316Y534858D01*
X783308Y534195D01*
X784479Y533962D01*
X784479Y533962D01*
X788148D01*
X789035Y532635D01*
X790854Y531419D01*
X793000Y530992D01*
X799000D01*
X801146Y531419D01*
X802965Y532635D01*
X804181Y534454D01*
X804608Y536600D01*
X804181Y538746D01*
X802965Y540565D01*
X801146Y541781D01*
X799000Y542208D01*
X793000D01*
X790854Y541781D01*
X789035Y540565D01*
X788710Y540080D01*
X786250D01*
Y541844D01*
X785413Y543866D01*
X783866Y545413D01*
X783809Y545436D01*
Y554983D01*
X786268Y557442D01*
X788500D01*
X788500Y557442D01*
X788796Y557501D01*
X805000D01*
Y559941D01*
X806999D01*
Y557999D01*
X815641D01*
X815999Y557999D01*
X816911Y557135D01*
Y555015D01*
X816842Y553773D01*
X815641Y553773D01*
X806842D01*
Y552332D01*
X803589D01*
X802965Y553265D01*
X801146Y554481D01*
X799000Y554908D01*
X793000D01*
X790854Y554481D01*
X789035Y553265D01*
X787819Y551446D01*
X787392Y549300D01*
X787819Y547154D01*
X789035Y545335D01*
X790854Y544119D01*
X793000Y543692D01*
X799000D01*
X801146Y544119D01*
X802965Y545335D01*
X803553Y546215D01*
X806842D01*
Y544773D01*
X816842Y544773D01*
X816911Y543532D01*
Y516081D01*
X816670Y515840D01*
X801956D01*
X801146Y516381D01*
X799000Y516808D01*
X793000D01*
X790854Y516381D01*
X790042Y515838D01*
X785900D01*
X767337Y534401D01*
Y583499D01*
Y586099D01*
X768652Y587413D01*
X777999D01*
X778442Y587502D01*
X782999D01*
Y596502D01*
X782999Y596502D01*
X782999Y596502D01*
X783052Y596632D01*
X783283Y596766D01*
X784532Y596892D01*
X798653Y582771D01*
D02*
G37*
G36*
X871191Y572733D02*
Y569751D01*
X870002D01*
Y559751D01*
X870416D01*
X871193Y558787D01*
X871193Y558787D01*
Y550716D01*
X871193Y550716D01*
X871197Y550694D01*
Y542717D01*
X869927Y542332D01*
X869793Y542533D01*
X869793Y542533D01*
X863163Y549163D01*
X862170Y549826D01*
X861000Y550059D01*
X861000Y550059D01*
X840671D01*
X840671Y550059D01*
X839500Y549826D01*
X839195Y549622D01*
X838093Y550078D01*
X835905D01*
X833884Y549241D01*
X832337Y547694D01*
X831499Y545672D01*
Y543484D01*
X832337Y541463D01*
X833884Y539916D01*
X833941Y539892D01*
Y537751D01*
X831999D01*
Y528751D01*
X831999D01*
X831999Y527751D01*
X831999D01*
X831999Y527481D01*
Y518751D01*
X832912D01*
Y516900D01*
X831851Y515840D01*
X826087D01*
Y575999D01*
X825999Y576443D01*
Y580999D01*
X826983Y581691D01*
X862233D01*
X871191Y572733D01*
D02*
G37*
G36*
X877571Y459344D02*
Y453575D01*
X863909Y439913D01*
X862890Y440932D01*
X862890D01*
X862183Y441639D01*
X855819Y448003D01*
X848818Y441002D01*
X848816Y441003D01*
X845157Y437345D01*
X833981D01*
X823022Y448304D01*
X823508Y449477D01*
X825950D01*
X829609Y445818D01*
X836580Y452789D01*
X837544Y452128D01*
X837610Y452070D01*
X843933Y445747D01*
X848127Y449941D01*
X865250D01*
X865250Y449941D01*
X866421Y450174D01*
X867413Y450837D01*
X876293Y459717D01*
X876293Y459717D01*
X876301Y459730D01*
X877571Y459344D01*
D02*
G37*
G36*
X884071Y449772D02*
Y423575D01*
X881909Y421413D01*
X880890Y422432D01*
X880890D01*
X880183Y423139D01*
X873819Y429503D01*
X866818Y422502D01*
X866566Y422753D01*
X862907Y419095D01*
X845731D01*
X834772Y430054D01*
X835258Y431227D01*
X844450D01*
X848109Y427568D01*
X854653Y434113D01*
X855819Y433861D01*
X862183Y427497D01*
X869254Y434568D01*
X868235Y435587D01*
X882793Y450145D01*
X882793Y450145D01*
X882801Y450157D01*
X884071Y449772D01*
D02*
G37*
%LPC*%
G36*
X827094Y709750D02*
X824906D01*
X822885Y708913D01*
X821337Y707365D01*
X820500Y705344D01*
Y703156D01*
X820693Y702691D01*
X820186Y702108D01*
X819706Y701754D01*
X818000Y702093D01*
X816147Y701724D01*
X814576Y700675D01*
X813526Y699103D01*
X813157Y697250D01*
Y687250D01*
X813526Y685397D01*
X814576Y683826D01*
X814941Y683581D01*
Y676267D01*
X813687Y675012D01*
X812417Y675538D01*
Y676656D01*
X811579Y678678D01*
X810032Y680225D01*
X808011Y681062D01*
X805823D01*
X803801Y680225D01*
X802254Y678678D01*
X801417Y676656D01*
Y674469D01*
X802254Y672447D01*
X803801Y670900D01*
X804841Y670469D01*
X805750Y669344D01*
Y667156D01*
X806587Y665135D01*
X808135Y663587D01*
X810156Y662750D01*
X812344D01*
X814365Y663587D01*
X815913Y665135D01*
X816750Y667156D01*
Y669344D01*
X816727Y669401D01*
X820163Y672837D01*
X820163Y672837D01*
X820826Y673829D01*
X821059Y675000D01*
Y682939D01*
X822271Y683721D01*
X822836Y683652D01*
X824147Y682776D01*
X826000Y682407D01*
X827853Y682776D01*
X829425Y683826D01*
X830474Y685397D01*
X830843Y687250D01*
Y697250D01*
X830474Y699103D01*
X829736Y700208D01*
X830663Y701134D01*
X831500Y703156D01*
Y705344D01*
X830663Y707365D01*
X829116Y708913D01*
X827094Y709750D01*
D02*
G37*
G36*
X945500Y513750D02*
X933500D01*
Y496750D01*
X935162D01*
Y493647D01*
X934663Y493149D01*
X933750Y490943D01*
Y488557D01*
X934663Y486351D01*
X936351Y484663D01*
X938557Y483750D01*
X940944D01*
X943149Y484663D01*
X944837Y486351D01*
X945750Y488557D01*
Y490943D01*
X944837Y493149D01*
X944338Y493647D01*
Y496750D01*
X945500D01*
Y513750D01*
D02*
G37*
G36*
X754000Y755500D02*
X742000D01*
Y754338D01*
X740000D01*
X738244Y753989D01*
X736756Y752994D01*
X729006Y745244D01*
X728011Y743756D01*
X727662Y742000D01*
Y713400D01*
X725099Y710838D01*
X607750D01*
Y711750D01*
X586750D01*
Y700750D01*
X604782D01*
X605335Y699480D01*
X605120Y699250D01*
X586750D01*
Y688250D01*
X604475D01*
X604507Y688207D01*
X605970Y687085D01*
X607673Y686380D01*
X609500Y686140D01*
X619500D01*
X621327Y686380D01*
X623030Y687085D01*
X624492Y688207D01*
X625615Y689670D01*
X626320Y691373D01*
X626560Y693200D01*
X626320Y695027D01*
X625615Y696730D01*
X624492Y698192D01*
X623030Y699314D01*
X621327Y700020D01*
X619500Y700260D01*
X609907D01*
X609215Y701058D01*
X609062Y701484D01*
X609141Y701662D01*
X641014D01*
X641500Y700489D01*
X635419Y694408D01*
X634424Y692919D01*
X634075Y691163D01*
Y681611D01*
X633577Y681112D01*
X632663Y678907D01*
Y676520D01*
X633577Y674315D01*
X633825Y674066D01*
Y626361D01*
X633327Y625862D01*
X632413Y623657D01*
Y621270D01*
X633327Y619065D01*
X635014Y617377D01*
X637220Y616464D01*
X639607D01*
X641812Y617377D01*
X643500Y619065D01*
X644413Y621270D01*
Y623657D01*
X643500Y625862D01*
X643001Y626361D01*
Y640002D01*
X644271Y640255D01*
X644751Y639098D01*
X646298Y637551D01*
X648319Y636714D01*
X650507D01*
X650564Y636737D01*
X653191Y634110D01*
Y604416D01*
X653191Y604416D01*
X653424Y603245D01*
X654087Y602253D01*
X721903Y534437D01*
X722895Y533774D01*
X724066Y533541D01*
X724066Y533541D01*
X731429D01*
X732035Y532635D01*
X733854Y531419D01*
X736000Y530992D01*
X742000D01*
X744146Y531419D01*
X745965Y532635D01*
X747181Y534454D01*
X747608Y536600D01*
X747181Y538746D01*
X745965Y540565D01*
X744146Y541781D01*
X742000Y542208D01*
X736000D01*
X733854Y541781D01*
X732035Y540565D01*
X731429Y539659D01*
X725333D01*
X719924Y545068D01*
X720410Y546241D01*
X731429D01*
X732035Y545335D01*
X733854Y544119D01*
X736000Y543692D01*
X742000D01*
X744146Y544119D01*
X745965Y545335D01*
X747181Y547154D01*
X747608Y549300D01*
X747181Y551446D01*
X745965Y553265D01*
X744146Y554481D01*
X742000Y554908D01*
X736000D01*
X733854Y554481D01*
X732035Y553265D01*
X731429Y552359D01*
X717587D01*
X662809Y607137D01*
Y642128D01*
X662576Y643298D01*
X661913Y644290D01*
X661913Y644291D01*
X654890Y651314D01*
X654913Y651370D01*
Y653558D01*
X654076Y655580D01*
X652529Y657127D01*
X650507Y657964D01*
X648319D01*
X646298Y657127D01*
X644751Y655580D01*
X644271Y654423D01*
X643001Y654676D01*
Y673567D01*
X643750Y674315D01*
X644663Y676520D01*
Y678907D01*
X643750Y681112D01*
X643251Y681611D01*
Y689263D01*
X648150Y694162D01*
X709750D01*
Y690250D01*
X725750D01*
Y701662D01*
X727000D01*
X728756Y702011D01*
X730244Y703006D01*
X735494Y708256D01*
X736489Y709744D01*
X736838Y711500D01*
Y740099D01*
X740730Y743991D01*
X742000Y743500D01*
Y743500D01*
X754000D01*
Y745162D01*
X765250D01*
Y744750D01*
X783250D01*
Y754750D01*
X765250D01*
Y754338D01*
X754000D01*
Y755500D01*
D02*
G37*
G36*
X576000Y700260D02*
X570000D01*
X568173Y700020D01*
X566470Y699314D01*
X565008Y698192D01*
X563885Y696730D01*
X563180Y695027D01*
X562940Y693200D01*
X563180Y691373D01*
X563885Y689670D01*
X565008Y688207D01*
X566470Y687085D01*
X568173Y686380D01*
X570000Y686140D01*
X576000D01*
X577827Y686380D01*
X579530Y687085D01*
X580992Y688207D01*
X582114Y689670D01*
X582820Y691373D01*
X583060Y693200D01*
X582820Y695027D01*
X582114Y696730D01*
X580992Y698192D01*
X579530Y699314D01*
X577827Y700020D01*
X576000Y700260D01*
D02*
G37*
G36*
X732844Y685000D02*
X730656D01*
X729326Y684449D01*
X729250Y684500D01*
Y684500D01*
X720520D01*
X720250Y684500D01*
X719250Y684500D01*
X718980Y684500D01*
X710250D01*
Y674500D01*
X709187Y673999D01*
X708749D01*
Y667806D01*
X707479Y667466D01*
X706502Y669159D01*
X704640Y671021D01*
X702360Y672337D01*
X699817Y673018D01*
X697184D01*
X695942Y672686D01*
X695532Y673891D01*
X695882Y674036D01*
X696192Y674164D01*
X696468Y674279D01*
X696999Y674501D01*
X696999Y674501D01*
X696999Y674501D01*
X706999D01*
Y683501D01*
X696999D01*
X696999Y683501D01*
X695793Y683655D01*
X694171Y684327D01*
X691983D01*
X689961Y683490D01*
X688414Y681942D01*
X687577Y679921D01*
Y677733D01*
X688414Y675711D01*
X689961Y674164D01*
X691983Y673327D01*
X693815D01*
X694155Y672057D01*
X692360Y671021D01*
X690498Y669159D01*
X689182Y666878D01*
X688500Y664335D01*
Y661702D01*
X689182Y659159D01*
X690498Y656878D01*
X692360Y655016D01*
X694640Y653700D01*
X697184Y653018D01*
X699817D01*
X702360Y653700D01*
X704640Y655016D01*
X706502Y656878D01*
X707819Y659159D01*
X708033Y659960D01*
X709768D01*
X709768Y659960D01*
X710250Y659564D01*
Y651500D01*
X718980D01*
X719250Y651500D01*
X720250Y651500D01*
X720520Y651500D01*
X729250D01*
Y651561D01*
X730423Y652047D01*
X730634Y651837D01*
X732655Y650999D01*
X734843D01*
X736865Y651837D01*
X738412Y653384D01*
X739249Y655405D01*
Y657593D01*
X738412Y659615D01*
X736865Y661162D01*
X734843Y661999D01*
X732655D01*
X730634Y661162D01*
X730423Y660952D01*
X729250Y661438D01*
Y661500D01*
X721812D01*
X720749Y661999D01*
X720749Y662770D01*
Y673230D01*
X720749Y673999D01*
X721812Y674500D01*
X729250D01*
Y674500D01*
X729326Y674551D01*
X730656Y674000D01*
X732844D01*
X734865Y674837D01*
X736413Y676385D01*
X737250Y678406D01*
Y680594D01*
X736413Y682616D01*
X734865Y684163D01*
X732844Y685000D01*
D02*
G37*
G36*
X610495Y683900D02*
X608505D01*
X606668Y683139D01*
X605261Y681732D01*
X604500Y679895D01*
Y677906D01*
X605261Y676068D01*
X605809Y675520D01*
X605283Y674250D01*
X586750D01*
Y673688D01*
X585577Y673201D01*
X585365Y673413D01*
X583344Y674250D01*
X581156D01*
X579134Y673413D01*
X577587Y671865D01*
X576750Y669844D01*
Y667656D01*
X577587Y665635D01*
X579134Y664087D01*
X581156Y663250D01*
X583344D01*
X585365Y664087D01*
X585577Y664298D01*
X586750Y663812D01*
Y663250D01*
X607750D01*
Y673395D01*
X608505Y673900D01*
X608786Y673900D01*
X610495D01*
X612332Y674661D01*
X613739Y676068D01*
X614500Y677906D01*
Y679895D01*
X613739Y681732D01*
X612332Y683139D01*
X610495Y683900D01*
D02*
G37*
G36*
X607750Y661750D02*
X586750D01*
Y661188D01*
X585577Y660701D01*
X585365Y660913D01*
X583344Y661750D01*
X581156D01*
X579134Y660913D01*
X577587Y659365D01*
X576750Y657344D01*
Y655156D01*
X577587Y653135D01*
X579134Y651587D01*
X581156Y650750D01*
X583344D01*
X585365Y651587D01*
X585577Y651798D01*
X586750Y651312D01*
Y650750D01*
X607750D01*
Y661750D01*
D02*
G37*
G36*
Y649250D02*
X586750D01*
Y648688D01*
X585577Y648201D01*
X585365Y648413D01*
X583344Y649250D01*
X581156D01*
X579134Y648413D01*
X577587Y646865D01*
X576750Y644844D01*
Y642656D01*
X577587Y640635D01*
X579134Y639087D01*
X581156Y638250D01*
X583344D01*
X585365Y639087D01*
X585577Y639299D01*
X586750Y638812D01*
Y638250D01*
X607750D01*
Y649250D01*
D02*
G37*
G36*
Y636750D02*
X586750D01*
Y636188D01*
X585577Y635701D01*
X585365Y635913D01*
X583344Y636750D01*
X581156D01*
X579134Y635913D01*
X577587Y634366D01*
X576750Y632344D01*
Y630156D01*
X577587Y628134D01*
X579134Y626587D01*
X581156Y625750D01*
X583344D01*
X585365Y626587D01*
X585577Y626799D01*
X586750Y626312D01*
Y625750D01*
X605283D01*
X605809Y624480D01*
X605261Y623932D01*
X604500Y622094D01*
Y620105D01*
X605261Y618268D01*
X606668Y616861D01*
X608505Y616100D01*
X610495D01*
X612332Y616861D01*
X613739Y618268D01*
X614500Y620105D01*
Y622094D01*
X613739Y623932D01*
X612332Y625339D01*
X610495Y626100D01*
X608786D01*
X608505Y626100D01*
X607750Y626605D01*
Y626923D01*
Y636750D01*
D02*
G37*
G36*
X693922Y626075D02*
X691734D01*
X689713Y625238D01*
X688166Y623691D01*
X687328Y621669D01*
Y619481D01*
X688166Y617460D01*
X689713Y615913D01*
X691734Y615075D01*
X693922D01*
X695634Y615784D01*
X695944Y615913D01*
X696219Y616028D01*
X696751Y616249D01*
X696751Y616249D01*
X696751Y616249D01*
X706751D01*
Y625249D01*
X696751D01*
X696751Y625249D01*
X695545Y625403D01*
X693922Y626075D01*
D02*
G37*
G36*
X619500Y613860D02*
X609500D01*
X607673Y613620D01*
X605970Y612915D01*
X604507Y611792D01*
X604475Y611750D01*
X586750D01*
Y600750D01*
X605886D01*
X605970Y600686D01*
X607673Y599980D01*
X609500Y599740D01*
X619500D01*
X621327Y599980D01*
X623030Y600686D01*
X624492Y601808D01*
X625615Y603270D01*
X626320Y604973D01*
X626560Y606800D01*
X626320Y608627D01*
X625615Y610330D01*
X624492Y611792D01*
X623030Y612915D01*
X621327Y613620D01*
X619500Y613860D01*
D02*
G37*
G36*
X576000D02*
X570000D01*
X568173Y613620D01*
X566470Y612915D01*
X565008Y611792D01*
X563885Y610330D01*
X563180Y608627D01*
X562940Y606800D01*
X563180Y604973D01*
X563885Y603270D01*
X565008Y601808D01*
X566470Y600686D01*
X568173Y599980D01*
X570000Y599740D01*
X576000D01*
X577827Y599980D01*
X579530Y600686D01*
X580992Y601808D01*
X582114Y603270D01*
X582820Y604973D01*
X583060Y606800D01*
X582820Y608627D01*
X582114Y610330D01*
X580992Y611792D01*
X579530Y612915D01*
X577827Y613620D01*
X576000Y613860D01*
D02*
G37*
%LPD*%
D13*
X728250Y606250D02*
D03*
X772750Y675500D02*
D03*
X918749Y787251D02*
D03*
Y746749D02*
D03*
Y776000D02*
D03*
X853750Y831000D02*
D03*
X844755Y830957D02*
D03*
X731750Y679500D02*
D03*
X649413Y652464D02*
D03*
Y642214D02*
D03*
X582250Y631250D02*
D03*
Y643750D02*
D03*
Y668750D02*
D03*
Y656250D02*
D03*
X774250Y566250D02*
D03*
X780750Y540750D02*
D03*
X756750Y597250D02*
D03*
X733749Y656499D02*
D03*
X733750Y643500D02*
D03*
X894000Y459000D02*
D03*
X900250Y451750D02*
D03*
X849000Y541000D02*
D03*
X836999Y544578D02*
D03*
X849251Y510749D02*
D03*
X692828Y620575D02*
D03*
X693077Y678827D02*
D03*
X740165Y630318D02*
D03*
X744000Y637904D02*
D03*
X743500Y608500D02*
D03*
Y622500D02*
D03*
X802701Y624378D02*
D03*
X838250Y605000D02*
D03*
X806917Y675563D02*
D03*
X792500Y647500D02*
D03*
X826000Y704250D02*
D03*
X799999Y641001D02*
D03*
X808749Y638501D02*
D03*
X811250Y668250D02*
D03*
X844750Y686000D02*
D03*
D15*
X724751Y620001D02*
Y620501D01*
X726251Y618501D02*
X726751D01*
X728250Y606422D02*
Y617001D01*
X726751Y618501D02*
X728250Y617001D01*
X724751Y620001D02*
X726251Y618501D01*
X724066Y536600D02*
X739000D01*
X656250Y604416D02*
X724066Y536600D01*
X656250Y604416D02*
Y635377D01*
X659750Y605870D02*
Y642128D01*
X716320Y549300D02*
X739000D01*
X659750Y605870D02*
X716320Y549300D01*
X868748Y731049D02*
X893630Y755930D01*
Y771061D01*
X868748Y711420D02*
Y731049D01*
X868748Y709749D02*
X870248Y708249D01*
X868748Y711420D02*
X868748Y711420D01*
Y709749D02*
Y711420D01*
X874256Y558791D02*
Y564506D01*
X874252Y558787D02*
X874256Y558791D01*
X874250Y564751D02*
Y568250D01*
X874256Y564506D02*
X874502Y564751D01*
X874256Y529065D02*
Y550711D01*
X874252Y550716D02*
Y558787D01*
Y550716D02*
X874256Y550711D01*
X762000Y712250D02*
X763000Y711250D01*
X769330Y692920D02*
Y704920D01*
X763000Y711250D02*
X769330Y704920D01*
X762000Y712250D02*
Y712250D01*
X763000Y711250D02*
X763000D01*
X778670Y692920D02*
Y704920D01*
X786000Y712250D02*
Y715250D01*
X778670Y704920D02*
X786000Y712250D01*
X756000Y678250D02*
X770000D01*
X772750Y675500D01*
X918749Y787251D02*
X918750Y787250D01*
X918749Y787251D02*
Y798499D01*
Y746749D02*
Y754999D01*
Y767749D02*
Y776000D01*
Y767249D02*
Y767749D01*
X905751Y755499D02*
X918749D01*
X900156Y761094D02*
X905751Y755499D01*
X900156Y761094D02*
Y771035D01*
X900130Y771061D02*
X900156Y771035D01*
X914938Y771061D02*
X916749Y769249D01*
X906630Y771061D02*
X914938D01*
X916749Y769249D02*
X917249D01*
X918749Y767749D01*
X887130Y754380D02*
Y771061D01*
X863748Y730998D02*
X887130Y754380D01*
X863748Y718249D02*
Y730998D01*
X851002Y730002D02*
X874130Y753130D01*
Y771061D01*
X851002Y651543D02*
Y730002D01*
X880630Y753630D02*
Y771061D01*
X856002Y729002D02*
X880630Y753630D01*
X856002Y708251D02*
Y729002D01*
X863748Y703248D02*
Y718249D01*
X858750Y698250D02*
X863748Y703248D01*
X868750Y702500D02*
Y706250D01*
X862750Y639868D02*
Y696500D01*
X868750Y702500D01*
X854000Y647000D02*
Y649592D01*
X854502Y650093D02*
Y706751D01*
X845250Y638250D02*
X854000Y647000D01*
X854502Y706751D02*
X856002Y708251D01*
X854000Y649592D02*
X854502Y650093D01*
X783500Y797751D02*
X796498D01*
X796499Y797749D01*
X844755Y830957D02*
Y833755D01*
X853750Y831000D02*
Y834250D01*
X857750Y838250D01*
X844755Y833755D02*
X852750Y841750D01*
X857750Y838250D02*
X866459D01*
X724750Y679500D02*
X731750D01*
X867630Y826561D02*
Y837078D01*
X866459Y838250D02*
X867630Y837078D01*
X872000Y841750D02*
X874130Y839620D01*
X852750Y841750D02*
X872000D01*
X874130Y826561D02*
Y839620D01*
X863471Y853279D02*
X883971D01*
X859786Y856964D02*
Y866786D01*
Y856964D02*
X863471Y853279D01*
X827194Y831250D02*
X835250D01*
X849636Y845636D01*
X874864D01*
X880630Y839870D01*
X844157Y849537D02*
X844558Y849136D01*
X880364D02*
X887130Y842370D01*
X844558Y849136D02*
X880364D01*
X842036Y849537D02*
X844157D01*
X883971Y853279D02*
X893630Y843620D01*
X877453Y859106D02*
X879717Y856841D01*
X889909D02*
X900130Y846620D01*
X879717Y856841D02*
X889909D01*
X877453Y859106D02*
Y881998D01*
X877036Y882415D02*
Y884537D01*
Y882415D02*
X877453Y881998D01*
X900130Y826561D02*
Y846620D01*
X893630Y826561D02*
Y843620D01*
X887130Y826561D02*
Y842370D01*
X824536Y831786D02*
X826657D01*
X827194Y831250D01*
X880630Y826561D02*
Y839870D01*
X810464Y831712D02*
X810468D01*
X817465Y824715D01*
X827964Y849462D02*
X834961Y842465D01*
X834965D01*
X845718Y866712D02*
X852715Y859715D01*
X845714Y866712D02*
X845718D01*
X862964Y884462D02*
X862968D01*
X869965Y877466D01*
X860136Y884462D02*
X860489Y884816D01*
X843712Y884462D02*
X860136D01*
X862611Y884816D02*
X862964Y884462D01*
X860489Y884816D02*
X862611D01*
X816786Y857536D02*
X843712Y884462D01*
X803982Y857536D02*
X816786D01*
X845361Y867066D02*
X845714Y866712D01*
X787896Y841449D02*
X806499D01*
X831763Y866712D01*
X842886D01*
X843239Y867066D01*
X845361D01*
X807993Y832063D02*
X810114D01*
X782731Y806801D02*
X807993Y832063D01*
X753601Y806801D02*
X782731D01*
X810114Y832063D02*
X810464Y831712D01*
X825489Y849816D02*
X827611D01*
X793038Y823038D02*
X819462Y849462D01*
X827611Y849816D02*
X827964Y849462D01*
X825136D02*
X825489Y849816D01*
X819462Y849462D02*
X825136D01*
X769485Y823038D02*
X793038D01*
X649413Y652464D02*
X659750Y642128D01*
X649413Y642214D02*
X656250Y635377D01*
X582250Y631250D02*
X597250D01*
X582250Y668750D02*
X597250D01*
X582250Y643750D02*
X597250D01*
X582250Y656250D02*
X597250D01*
X774250Y566250D02*
X781501Y573501D01*
X774250Y535750D02*
X785143Y524857D01*
X774250Y535750D02*
Y566250D01*
X784479Y537021D02*
X795579D01*
X780750Y540750D02*
Y556250D01*
Y540750D02*
X784479Y537021D01*
X795579D02*
X796000Y536600D01*
X785143Y524857D02*
X795043D01*
X785001Y560501D02*
X788500D01*
X780750Y556250D02*
X785001Y560501D01*
X788500D02*
X790500Y562501D01*
X781501Y573501D02*
X788500D01*
X790500Y575501D01*
X801500Y576000D02*
X812000D01*
X796027Y549273D02*
X811842D01*
X796000Y549300D02*
X796027Y549273D01*
X790500Y575501D02*
Y576001D01*
X795043Y524857D02*
X796000Y523900D01*
X790500Y562501D02*
Y563001D01*
X786316Y599434D02*
X801000Y584750D01*
X863500D01*
X874250Y574000D01*
X786000Y608250D02*
X786316Y607934D01*
Y599434D02*
Y607934D01*
X880750Y528821D02*
Y554751D01*
Y573750D01*
X810000Y595750D02*
X817500Y588250D01*
X866250D02*
X880750Y573750D01*
X817500Y588250D02*
X866250D01*
X810000Y595750D02*
Y608250D01*
X818000Y598250D02*
X824500Y591750D01*
X818000Y598250D02*
Y608250D01*
X824500Y591750D02*
X868194D01*
X887130Y528939D02*
Y564749D01*
X868194Y591750D02*
X887130Y572814D01*
Y564749D02*
Y572814D01*
X833250Y595250D02*
X870000D01*
X826000Y602500D02*
X833250Y595250D01*
X826000Y602500D02*
Y608250D01*
X870000Y595250D02*
X893748Y571502D01*
X752749Y572002D02*
Y593249D01*
X756750Y597250D01*
X747450Y511200D02*
X752749Y516499D01*
Y562002D01*
X739000Y511200D02*
X747450D01*
X893748Y555249D02*
Y571502D01*
X874250Y568250D02*
Y574000D01*
X724750Y656500D02*
X733749D01*
X724751Y643501D02*
X733749D01*
X733750Y643500D01*
X893751Y459249D02*
Y473318D01*
Y459249D02*
X894000Y459000D01*
X893630Y473439D02*
X893751Y473318D01*
X900130Y451870D02*
X900250Y451750D01*
X900130Y451870D02*
Y473439D01*
X714750Y656500D02*
Y679500D01*
X698500Y663018D02*
X709768D01*
X714749Y667999D01*
X714751Y620501D02*
Y643501D01*
X692500Y636982D02*
X699251Y630231D01*
X698500Y636982D02*
X709769D01*
X714750Y632000D01*
X861130Y528939D02*
Y539828D01*
X849000Y541000D02*
X859958D01*
X861130Y539828D01*
X840671Y547000D02*
X861000D01*
X867630Y528939D02*
Y540370D01*
X861000Y547000D02*
X867630Y540370D01*
X837999Y544328D02*
X840671Y547000D01*
X836999Y544328D02*
X837999D01*
X848999Y540999D02*
X849000Y541000D01*
X848999Y533251D02*
Y540999D01*
X836999Y533251D02*
Y544578D01*
X849011Y482249D02*
Y501501D01*
X849250Y510750D02*
X849251Y510749D01*
Y501251D02*
Y510749D01*
X907130Y479195D02*
X918571D01*
X860630Y820805D02*
X861130Y821305D01*
Y826561D01*
X849189Y820805D02*
X860630D01*
X849189D02*
X849252Y820742D01*
Y810751D02*
Y820742D01*
X850569Y480691D02*
X859458D01*
X849011Y482249D02*
X850569Y480691D01*
X918749Y810499D02*
Y817751D01*
Y798499D02*
Y810499D01*
X917191Y819309D02*
X918749Y817751D01*
X908302Y819309D02*
X917191D01*
X906630Y819811D02*
X907130Y819311D01*
X908300D02*
X908302Y819309D01*
X906630Y819811D02*
Y826561D01*
X907130Y819311D02*
X908300D01*
X862536Y434214D02*
X862537D01*
X880630Y452308D01*
Y473439D01*
X887130Y422308D02*
Y473439D01*
X880536Y415714D02*
X887130Y422308D01*
X846408Y452464D02*
X846943Y453000D01*
X865250D01*
X844286Y452464D02*
X846408D01*
X865250Y453000D02*
X874130Y461880D01*
Y473439D01*
X829251Y466500D02*
X843000D01*
X825787Y469964D02*
X829251Y466500D01*
X843000D02*
X848000Y461500D01*
X865500D01*
X867538Y463538D02*
Y473348D01*
X867630Y473439D01*
X865500Y461500D02*
X867538Y463538D01*
X872962Y422785D02*
X873465D01*
X866212Y416036D02*
X872962Y422785D01*
X855462Y441286D02*
X855465D01*
X848462Y434286D02*
X855462Y441286D01*
X836962Y459535D02*
X837215D01*
X829962Y452536D02*
X836962Y459535D01*
X811716Y470036D02*
X818715Y477035D01*
X811462Y470036D02*
X811716D01*
X863384Y416036D02*
X863737Y415682D01*
X865859D02*
X866212Y416036D01*
X863737Y415682D02*
X865859D01*
X844464Y416036D02*
X863384D01*
X803982Y442464D02*
X818036D01*
X844464Y416036D01*
X769485Y476962D02*
X796038D01*
X820464Y452536D01*
X845987Y433932D02*
X848109D01*
X848462Y434286D01*
X845634D02*
X845987Y433932D01*
X832714Y434286D02*
X845634D01*
X808449Y458551D02*
X832714Y434286D01*
X787896Y458551D02*
X808449D01*
X827134Y452536D02*
X827487Y452182D01*
X829609D02*
X829962Y452536D01*
X827487Y452182D02*
X829609D01*
X820464Y452536D02*
X827134D01*
X753601Y493199D02*
X788299D01*
X811462Y470036D01*
X893748Y529695D02*
Y555249D01*
X918516Y479764D02*
Y489264D01*
X693002Y620749D02*
X701751D01*
X693077Y678827D02*
X693251Y679001D01*
X701999D01*
X740233Y630250D02*
X756000D01*
X740165Y630318D02*
X740233Y630250D01*
X744000Y637904D02*
X744173Y638077D01*
X755827D01*
X756000Y638250D01*
X743500Y608500D02*
X743750Y608250D01*
X770000D01*
X743625Y622375D02*
X755875D01*
X756000Y622250D01*
X743500Y622500D02*
X743625Y622375D01*
X845708Y646250D02*
X851002Y651543D01*
X858750Y643500D02*
Y698250D01*
X792500Y647500D02*
X797000Y652000D01*
X800062D01*
X800062Y652000D02*
X811750D01*
X800062Y652000D02*
X800062Y652000D01*
X826000Y692250D02*
Y704250D01*
X800000Y641000D02*
X807500Y648500D01*
X813750D01*
X808750Y638500D02*
Y638550D01*
X824450Y654250D02*
X840000D01*
X840000Y654250D01*
X808750Y638550D02*
X824450Y654250D01*
X813750Y648500D02*
X827500Y662250D01*
X840000D01*
X811750Y652000D02*
X830000Y670250D01*
X840000D01*
X801500Y563000D02*
X812000D01*
X812000Y563000D01*
X740749Y689999D02*
Y700250D01*
X740499Y700499D02*
X740749Y700250D01*
X745000Y684250D02*
X748749Y687999D01*
X745000Y665000D02*
Y684250D01*
X750749Y689499D02*
Y689999D01*
X749249Y687999D02*
X750749Y689499D01*
X748749Y687999D02*
X749249D01*
X745000Y665000D02*
X747309Y662691D01*
X755559D02*
X756000Y662250D01*
X747309Y662691D02*
X755559D01*
X811250Y668250D02*
X818000Y675000D01*
Y692250D01*
X845132Y622250D02*
X862750Y639868D01*
X840000Y622250D02*
X845132D01*
X845500Y630250D02*
X858750Y643500D01*
X840000Y630250D02*
X845500D01*
X840000Y638250D02*
X845250D01*
X840000Y646250D02*
X845708D01*
X844566Y679867D02*
Y685816D01*
X844750Y686000D01*
X840000Y678250D02*
X842949D01*
X844566Y679867D01*
X801998Y706749D02*
X802000Y706747D01*
X769330Y692920D02*
X769930Y692320D01*
X778000Y692250D02*
X778670Y692920D01*
D42*
X777999Y592002D02*
D03*
Y582002D02*
D03*
X836999Y523251D02*
D03*
X836999Y533251D02*
D03*
X848999Y523251D02*
D03*
X848999Y533251D02*
D03*
X701999Y689001D02*
D03*
X701999Y679001D02*
D03*
X701751Y610749D02*
D03*
Y620749D02*
D03*
X811999Y511252D02*
D03*
Y521252D02*
D03*
X811842Y549273D02*
D03*
Y539273D02*
D03*
X752749Y562002D02*
D03*
Y572002D02*
D03*
X759499Y739752D02*
D03*
Y749752D02*
D03*
D43*
X762749Y583499D02*
D03*
X752749Y583499D02*
D03*
X849251Y489251D02*
D03*
X839251Y489251D02*
D03*
X874502Y564751D02*
D03*
X864502Y564751D02*
D03*
X839251Y501251D02*
D03*
X849251Y501251D02*
D03*
X918516Y479264D02*
D03*
X928516D02*
D03*
X895248Y554749D02*
D03*
X905248Y554749D02*
D03*
X888748Y564749D02*
D03*
X898748D02*
D03*
X920498Y546999D02*
D03*
X930498D02*
D03*
X920498Y536999D02*
D03*
X930498D02*
D03*
X879252Y554751D02*
D03*
X869252Y554751D02*
D03*
X918516Y489264D02*
D03*
X928516D02*
D03*
X838503Y765502D02*
D03*
X848503D02*
D03*
X928749Y798499D02*
D03*
X918749Y798499D02*
D03*
X849252Y810751D02*
D03*
X839252Y810751D02*
D03*
X849189Y820805D02*
D03*
X839189Y820805D02*
D03*
X928749Y767249D02*
D03*
X918749Y767249D02*
D03*
X928749Y810499D02*
D03*
X918749Y810499D02*
D03*
X928749Y755499D02*
D03*
X918749Y755499D02*
D03*
X811499Y575999D02*
D03*
X821499D02*
D03*
X873748Y718249D02*
D03*
X863748D02*
D03*
X724750Y679500D02*
D03*
X714750Y679500D02*
D03*
X838503Y755502D02*
D03*
X848503D02*
D03*
X724751Y643501D02*
D03*
X714751D02*
D03*
X839502Y718251D02*
D03*
X849502Y718251D02*
D03*
X846002Y708251D02*
D03*
X856002D02*
D03*
X880248Y708249D02*
D03*
X870248Y708249D02*
D03*
X811499Y562999D02*
D03*
X821499Y562999D02*
D03*
X740749Y689999D02*
D03*
X750749Y689999D02*
D03*
X802003Y726753D02*
D03*
X812003D02*
D03*
X812000Y736750D02*
D03*
X802000D02*
D03*
X811998Y706749D02*
D03*
X801998D02*
D03*
X724750Y656500D02*
D03*
X714750Y656500D02*
D03*
X724751Y620501D02*
D03*
X714751Y620501D02*
D03*
X796499Y797749D02*
D03*
X806499Y797749D02*
D03*
D44*
X848500Y797250D02*
D03*
X829500D02*
D03*
X920500Y505250D02*
D03*
X939500D02*
D03*
D45*
X717750Y730750D02*
D03*
X717750Y696750D02*
D03*
D46*
X883880Y501189D02*
D03*
Y798811D02*
D03*
D47*
X861130Y473439D02*
D03*
X867630Y473439D02*
D03*
X874130Y473439D02*
D03*
X880630D02*
D03*
X887130Y473439D02*
D03*
X893630Y473439D02*
D03*
X900130Y473439D02*
D03*
X906630D02*
D03*
X861130Y528939D02*
D03*
X867630D02*
D03*
X874130D02*
D03*
X880630D02*
D03*
X887130D02*
D03*
X893630D02*
D03*
X900130D02*
D03*
X906630D02*
D03*
X861130Y771061D02*
D03*
X867630Y771061D02*
D03*
X874130D02*
D03*
X880630Y771061D02*
D03*
X887130Y771061D02*
D03*
X893630D02*
D03*
X900130D02*
D03*
X906630D02*
D03*
X861130Y826561D02*
D03*
X867630D02*
D03*
X874130D02*
D03*
X880630D02*
D03*
X887130D02*
D03*
X893630D02*
D03*
X900130D02*
D03*
X906630D02*
D03*
D48*
X920475Y523000D02*
D03*
X939525D02*
D03*
X829475Y779500D02*
D03*
X848525D02*
D03*
D49*
X796000Y549300D02*
D03*
Y536600D02*
D03*
Y523900D02*
D03*
Y511200D02*
D03*
X739000Y511200D02*
D03*
Y523900D02*
D03*
X739000Y536600D02*
D03*
Y549300D02*
D03*
D50*
X826000Y692250D02*
D03*
X818000D02*
D03*
X810000D02*
D03*
X802000D02*
D03*
X794000D02*
D03*
X786000D02*
D03*
X778000D02*
D03*
X770000D02*
D03*
Y608250D02*
D03*
X778000Y608250D02*
D03*
X786000D02*
D03*
X794000Y608250D02*
D03*
X802000D02*
D03*
X810000D02*
D03*
X818000Y608250D02*
D03*
X826000D02*
D03*
D51*
X840000Y678250D02*
D03*
X840000Y670250D02*
D03*
X840000Y662250D02*
D03*
Y654250D02*
D03*
Y646250D02*
D03*
Y638250D02*
D03*
Y630250D02*
D03*
Y622250D02*
D03*
X756000Y622250D02*
D03*
X756000Y630250D02*
D03*
X756000Y638250D02*
D03*
Y646250D02*
D03*
Y654250D02*
D03*
Y662250D02*
D03*
Y670250D02*
D03*
Y678250D02*
D03*
D52*
X790500Y563001D02*
D03*
X800001D02*
D03*
X774000Y797751D02*
D03*
X783500D02*
D03*
X790500Y576001D02*
D03*
X800001D02*
D03*
X750000Y700499D02*
D03*
X740499D02*
D03*
D53*
X774250Y779750D02*
D03*
Y749750D02*
D03*
D54*
X776250Y764750D02*
D03*
D55*
X801250D02*
D03*
D56*
X824536Y831786D02*
D03*
X817465Y824715D02*
D03*
X842036Y849537D02*
D03*
X834965Y842465D02*
D03*
X817535Y838783D02*
D03*
X810464Y831712D02*
D03*
X877036Y884537D02*
D03*
X869965Y877466D02*
D03*
X859786Y866786D02*
D03*
X852715Y859715D02*
D03*
X852785Y873783D02*
D03*
X845714Y866712D02*
D03*
X870035Y891533D02*
D03*
X862964Y884462D02*
D03*
X835035Y856533D02*
D03*
X827964Y849462D02*
D03*
D57*
X714749Y667999D02*
D03*
X730749D02*
D03*
X714750Y632000D02*
D03*
X730750D02*
D03*
D58*
X748000Y749500D02*
D03*
Y733500D02*
D03*
X746500Y780750D02*
D03*
X746500Y764750D02*
D03*
D59*
X825787Y469964D02*
D03*
X818715Y477035D02*
D03*
X844286Y452464D02*
D03*
X837215Y459535D02*
D03*
X862536Y434214D02*
D03*
X855465Y441286D02*
D03*
X818533Y462965D02*
D03*
X811462Y470036D02*
D03*
X837033Y445465D02*
D03*
X829962Y452536D02*
D03*
X855533Y427215D02*
D03*
X848462Y434286D02*
D03*
X873283Y408965D02*
D03*
X866212Y416036D02*
D03*
X880536Y415714D02*
D03*
X873465Y422785D02*
D03*
D60*
X786000Y719750D02*
D03*
X774000D02*
D03*
X762000D02*
D03*
D61*
X571250Y566500D02*
D03*
Y733500D02*
D03*
D62*
X597250Y706250D02*
D03*
Y693750D02*
D03*
Y681250D02*
D03*
Y668750D02*
D03*
Y656250D02*
D03*
Y643750D02*
D03*
Y631250D02*
D03*
Y618750D02*
D03*
Y606250D02*
D03*
Y593750D02*
D03*
D63*
X937499Y798499D02*
X937500Y798500D01*
X928749Y798499D02*
X937499D01*
X829500Y797250D02*
X829750Y797500D01*
X837000D01*
X786096Y699984D02*
X793360Y707249D01*
X801998D01*
X786096Y692346D02*
Y699984D01*
X786000Y692250D02*
X786096Y692346D01*
X801998Y708249D02*
Y760998D01*
X786000Y663750D02*
Y692250D01*
X806499Y797749D02*
X829001D01*
X829500Y797250D01*
X735500Y764750D02*
X746500D01*
X717750Y747000D02*
X735500Y764750D01*
X746500Y764750D02*
X776250D01*
X740000Y749750D02*
X774250D01*
X732250Y742000D02*
X740000Y749750D01*
X732250Y711500D02*
Y742000D01*
X597250Y706250D02*
X727000D01*
X732250Y711500D01*
X928749Y767249D02*
Y798499D01*
Y755499D02*
Y767249D01*
X806499Y769999D02*
Y797749D01*
X801250Y764750D02*
X806499Y769999D01*
X821499Y514181D02*
Y575999D01*
X838751Y501751D02*
X839251D01*
X646250Y698750D02*
X717750D01*
X638663Y691163D02*
X646250Y698750D01*
X638663Y677714D02*
Y691163D01*
X638413Y622464D02*
Y677464D01*
X638663Y677714D01*
X811999Y496751D02*
X812000Y496750D01*
X811999Y496751D02*
Y511252D01*
X939500Y505250D02*
X939750Y505000D01*
Y489750D02*
Y505000D01*
X837500Y515000D02*
Y523002D01*
X837749Y523251D01*
X829250Y511252D02*
X833752D01*
X837500Y515000D01*
X818570Y511252D02*
X829250D01*
X811999D02*
X818570D01*
X839251Y501251D02*
Y501751D01*
X829250Y511252D02*
X838751Y501751D01*
X837749Y523251D02*
X848999D01*
X818570Y511252D02*
X821499Y514181D01*
X796051Y511252D02*
X811999D01*
X796000Y511200D02*
X796051Y511252D01*
X778000Y655750D02*
X786000Y663750D01*
X795950Y511250D02*
X796000Y511200D01*
X784000Y511250D02*
X795950D01*
X762749Y532501D02*
X784000Y511250D01*
X762749Y532501D02*
Y583499D01*
Y587999D01*
X766752Y592002D01*
X777999D01*
X778000Y593019D02*
Y608250D01*
X802000Y692250D02*
Y706747D01*
X920500Y505250D02*
Y543250D01*
X918516Y479764D02*
X918516Y479764D01*
Y479264D02*
Y479764D01*
X717750Y732500D02*
Y747000D01*
X920225Y504975D02*
X920500Y505250D01*
X778000Y608250D02*
Y655750D01*
D64*
X848500Y755506D02*
Y797250D01*
Y755506D02*
X862006D01*
X867630Y761130D02*
Y771061D01*
X862006Y755506D02*
X867630Y761130D01*
X903250Y543250D02*
X920500D01*
X900130Y540130D02*
X903250Y543250D01*
X900130Y528939D02*
Y540130D01*
D65*
X698500Y636982D02*
D03*
Y663018D02*
D03*
X787896Y458551D02*
D03*
X769485Y476962D02*
D03*
X753601Y493199D02*
D03*
X803982Y442464D02*
D03*
Y857536D02*
D03*
X753601Y806801D02*
D03*
X769485Y823038D02*
D03*
X787896Y841449D02*
D03*
D66*
X904877Y511684D02*
D03*
X904875Y501186D02*
D03*
X904874Y490689D02*
D03*
X894376Y490690D02*
D03*
X894378Y501188D02*
D03*
X894379Y511685D02*
D03*
X862887Y511690D02*
D03*
X873384Y511688D02*
D03*
X862883Y490695D02*
D03*
X873381Y490693D02*
D03*
X862885Y501193D02*
D03*
X873382Y501191D02*
D03*
X883882Y511687D02*
D03*
X883878Y490692D02*
D03*
X883880Y501189D02*
D03*
Y798811D02*
D03*
X883882Y809308D02*
D03*
X883878Y788313D02*
D03*
X894378Y798809D02*
D03*
X904875Y798808D02*
D03*
X894379Y809307D02*
D03*
X904877Y809305D02*
D03*
X894376Y788311D02*
D03*
X904874Y788310D02*
D03*
X873381Y788315D02*
D03*
X873382Y798812D02*
D03*
X873384Y809310D02*
D03*
X862887Y809312D02*
D03*
X862885Y798814D02*
D03*
X862883Y788316D02*
D03*
D67*
X573000Y693200D02*
D03*
Y606800D02*
D03*
D68*
X614500Y693200D02*
D03*
Y606800D02*
D03*
D69*
X802751Y593751D02*
D03*
X771823Y583037D02*
D03*
X839471Y746836D02*
D03*
X839001Y728001D02*
D03*
X822501Y725001D02*
D03*
X823001Y733251D02*
D03*
X822936Y742997D02*
D03*
X826751Y751251D02*
D03*
X815483Y788544D02*
D03*
X942251Y538751D02*
D03*
X942001Y548751D02*
D03*
X915491Y556841D02*
D03*
X913019Y565930D02*
D03*
X906162Y573664D02*
D03*
X863710Y553671D02*
D03*
X863979Y574071D02*
D03*
X878501Y402001D02*
D03*
X860501Y423251D02*
D03*
X840396Y441488D02*
D03*
X822911Y460116D02*
D03*
X824676Y501619D02*
D03*
X830851Y491413D02*
D03*
X874050Y896810D02*
D03*
X857868Y877290D02*
D03*
X840631Y859556D02*
D03*
X823001Y842251D02*
D03*
X818501Y810251D02*
D03*
X807750Y810250D02*
D03*
X937500Y798500D02*
D03*
X837000Y797500D02*
D03*
X638663Y677714D02*
D03*
X638413Y622464D02*
D03*
X812000Y496750D02*
D03*
X939750Y489750D02*
D03*
M02*
