G04*
G04 #@! TF.GenerationSoftware,Altium Limited,Altium Designer,21.8.1 (53)*
G04*
G04 Layer_Color=65535*
%FSLAX44Y44*%
%MOMM*%
G71*
G04*
G04 #@! TF.SameCoordinates,A13A9599-9D59-4998-A3CA-6CFB5E3765DF*
G04*
G04*
G04 #@! TF.FilePolarity,Positive*
G04*
G01*
G75*
%ADD10C,0.7000*%
%ADD11C,0.4000*%
%ADD12C,0.2500*%
%ADD13C,0.7000*%
%ADD14C,1.2000*%
%ADD15C,0.2000*%
G36*
X848693Y584397D02*
X848841Y584341D01*
X849008Y584230D01*
X849026D01*
X849045Y584193D01*
X849119Y584100D01*
X849174Y583952D01*
X849211Y583860D01*
Y583767D01*
Y583749D01*
X849193Y583675D01*
X849174Y583563D01*
X849119Y583452D01*
X846064Y577823D01*
X849119Y572176D01*
X849137Y572157D01*
X849174Y572083D01*
X849193Y571991D01*
X849211Y571880D01*
Y571861D01*
Y571842D01*
X849193Y571731D01*
X849119Y571583D01*
X849063Y571509D01*
X848989Y571417D01*
X848952Y571398D01*
X848859Y571343D01*
X848693Y571269D01*
X848508Y571250D01*
X848452D01*
X848378Y571269D01*
X848304Y571306D01*
X848211Y571343D01*
X848119Y571417D01*
X848026Y571528D01*
X847952Y571657D01*
X845341Y576675D01*
X842675Y571509D01*
Y571491D01*
X842638Y571472D01*
X842545Y571380D01*
X842471Y571324D01*
X842379Y571287D01*
X842268Y571269D01*
X842138Y571250D01*
X842101D01*
X841971Y571269D01*
X841823Y571324D01*
X841675Y571417D01*
X841638Y571454D01*
X841582Y571546D01*
X841527Y571694D01*
X841490Y571880D01*
Y571898D01*
X841508Y571972D01*
X841527Y572083D01*
X841564Y572194D01*
X844638Y577823D01*
X841564Y583452D01*
X841490Y583749D01*
Y583786D01*
X841508Y583878D01*
X841564Y584008D01*
X841656Y584175D01*
Y584193D01*
X841694Y584212D01*
X841786Y584304D01*
X841953Y584378D01*
X842045Y584397D01*
X842157Y584415D01*
X842212D01*
X842286Y584397D01*
X842360Y584360D01*
X842453Y584304D01*
X842564Y584230D01*
X842656Y584119D01*
X842730Y583971D01*
X845341Y578990D01*
X848008Y584119D01*
Y584137D01*
X848026Y584175D01*
X848119Y584267D01*
X848193Y584323D01*
X848286Y584378D01*
X848397Y584397D01*
X848526Y584415D01*
X848582D01*
X848693Y584397D01*
D02*
G37*
G36*
X837287Y584378D02*
X837398D01*
X837509Y584360D01*
X837787Y584286D01*
X838120Y584193D01*
X838472Y584026D01*
X838823Y583823D01*
X838990Y583675D01*
X839157Y583526D01*
X839175Y583508D01*
X839194Y583489D01*
X839305Y583378D01*
X839435Y583193D01*
X839601Y582952D01*
X839768Y582656D01*
X839916Y582304D01*
X840009Y581897D01*
X840027Y581693D01*
X840046Y581471D01*
Y579638D01*
Y579619D01*
Y579582D01*
Y579527D01*
X840027Y579434D01*
Y579342D01*
X840009Y579212D01*
X839934Y578934D01*
X839842Y578601D01*
X839675Y578268D01*
X839472Y577916D01*
X839323Y577749D01*
X839175Y577583D01*
X839157D01*
X839138Y577546D01*
X839083Y577509D01*
X839027Y577453D01*
X838842Y577305D01*
X838601Y577157D01*
X838287Y577009D01*
X837935Y576861D01*
X837527Y576768D01*
X837305Y576749D01*
X837083Y576731D01*
X837176D01*
X839971Y572157D01*
X839990Y572139D01*
X840009Y572083D01*
X840027Y571991D01*
X840046Y571861D01*
Y571842D01*
Y571824D01*
X840027Y571713D01*
X839953Y571565D01*
X839898Y571491D01*
X839823Y571398D01*
X839786Y571380D01*
X839694Y571324D01*
X839546Y571269D01*
X839361Y571250D01*
X839268D01*
X839157Y571269D01*
X839046Y571306D01*
X839027Y571324D01*
X838972Y571380D01*
X838898Y571454D01*
X838805Y571583D01*
X835805Y576731D01*
X834546D01*
Y571880D01*
Y571861D01*
Y571824D01*
X834528Y571713D01*
X834472Y571565D01*
X834361Y571417D01*
X834324Y571398D01*
X834231Y571343D01*
X834065Y571269D01*
X833880Y571250D01*
X833861D01*
X833787Y571269D01*
X833657Y571306D01*
X833472Y571361D01*
X833435Y571398D01*
X833361Y571491D01*
X833287Y571657D01*
X833269Y571768D01*
X833250Y571880D01*
Y583749D01*
Y583786D01*
X833269Y583860D01*
X833287Y583952D01*
X833324Y584082D01*
X833398Y584193D01*
X833509Y584304D01*
X833676Y584378D01*
X833880Y584397D01*
X837194D01*
X837287Y584378D01*
D02*
G37*
G36*
X848274Y568596D02*
X848422Y568541D01*
X848589Y568430D01*
X848608D01*
X848626Y568393D01*
X848700Y568300D01*
X848756Y568152D01*
X848793Y568059D01*
Y567967D01*
Y567948D01*
X848774Y567874D01*
X848756Y567763D01*
X848700Y567652D01*
X845645Y562023D01*
X848700Y556375D01*
X848719Y556357D01*
X848756Y556283D01*
X848774Y556190D01*
X848793Y556079D01*
Y556061D01*
Y556042D01*
X848774Y555931D01*
X848700Y555783D01*
X848645Y555709D01*
X848571Y555616D01*
X848533Y555598D01*
X848441Y555542D01*
X848274Y555468D01*
X848089Y555450D01*
X848034D01*
X847960Y555468D01*
X847886Y555505D01*
X847793Y555542D01*
X847700Y555616D01*
X847608Y555727D01*
X847534Y555857D01*
X844923Y560875D01*
X842256Y555709D01*
Y555690D01*
X842219Y555672D01*
X842127Y555579D01*
X842053Y555524D01*
X841960Y555487D01*
X841849Y555468D01*
X841719Y555450D01*
X841682D01*
X841553Y555468D01*
X841405Y555524D01*
X841256Y555616D01*
X841219Y555653D01*
X841164Y555746D01*
X841108Y555894D01*
X841071Y556079D01*
Y556098D01*
X841090Y556172D01*
X841108Y556283D01*
X841145Y556394D01*
X844219Y562023D01*
X841145Y567652D01*
X841071Y567948D01*
Y567985D01*
X841090Y568078D01*
X841145Y568208D01*
X841238Y568374D01*
Y568393D01*
X841275Y568411D01*
X841368Y568504D01*
X841534Y568578D01*
X841627Y568596D01*
X841738Y568615D01*
X841794D01*
X841868Y568596D01*
X841942Y568559D01*
X842034Y568504D01*
X842145Y568430D01*
X842238Y568319D01*
X842312Y568171D01*
X844923Y563190D01*
X847589Y568319D01*
Y568337D01*
X847608Y568374D01*
X847700Y568467D01*
X847774Y568522D01*
X847867Y568578D01*
X847978Y568596D01*
X848108Y568615D01*
X848163D01*
X848274Y568596D01*
D02*
G37*
G36*
X839090Y568578D02*
X839238Y568504D01*
X839331Y568467D01*
X839405Y568393D01*
X839423D01*
X839442Y568356D01*
X839516Y568263D01*
X839572Y568115D01*
X839609Y568041D01*
Y567948D01*
Y567930D01*
Y567911D01*
X839590Y567819D01*
X839535Y567671D01*
X839423Y567522D01*
X839386Y567485D01*
X839294Y567430D01*
X839146Y567356D01*
X839053Y567337D01*
X838942Y567319D01*
X836868D01*
Y556079D01*
Y556061D01*
Y556024D01*
X836850Y555913D01*
X836794Y555764D01*
X836683Y555616D01*
X836646Y555598D01*
X836553Y555542D01*
X836387Y555468D01*
X836201Y555450D01*
X836183D01*
X836109Y555468D01*
X835979Y555505D01*
X835794Y555561D01*
X835757Y555598D01*
X835683Y555690D01*
X835609Y555857D01*
X835590Y555968D01*
X835572Y556079D01*
Y567319D01*
X833406D01*
X833294Y567337D01*
X833146Y567393D01*
X832998Y567485D01*
Y567504D01*
X832980Y567522D01*
X832924Y567615D01*
X832850Y567763D01*
X832831Y567948D01*
Y567967D01*
X832850Y568059D01*
X832887Y568171D01*
X832980Y568337D01*
Y568356D01*
X833017Y568374D01*
X833091Y568467D01*
X833239Y568559D01*
X833350Y568578D01*
X833461Y568596D01*
X838979D01*
X839090Y568578D01*
D02*
G37*
G36*
X804435Y821224D02*
X804583Y821168D01*
X804749Y821057D01*
X804768D01*
X804786Y821020D01*
X804861Y820946D01*
X804916Y820798D01*
X804953Y820705D01*
Y820594D01*
X804935Y820446D01*
X801731Y808632D01*
Y808614D01*
X801694Y808558D01*
X801657Y808466D01*
X801602Y808373D01*
X801509Y808262D01*
X801398Y808188D01*
X801268Y808114D01*
X801102Y808095D01*
X801028D01*
X800954Y808132D01*
X800861Y808169D01*
X800750Y808225D01*
X800657Y808318D01*
X800565Y808447D01*
X800491Y808632D01*
X797287Y820446D01*
X797269Y820594D01*
Y820613D01*
Y820631D01*
X797287Y820742D01*
X797343Y820890D01*
X797454Y821039D01*
Y821057D01*
X797491Y821076D01*
X797583Y821150D01*
X797732Y821205D01*
X797824Y821242D01*
X797954D01*
X798028Y821224D01*
X798120Y821205D01*
X798232Y821131D01*
X798269Y821113D01*
X798324Y821057D01*
X798435Y820946D01*
X798472Y820872D01*
X798528Y820779D01*
X801120Y810743D01*
X803675Y820724D01*
Y820742D01*
Y820761D01*
X803712Y820853D01*
X803786Y820964D01*
X803879Y821076D01*
X803916Y821094D01*
X803990Y821150D01*
X804120Y821205D01*
X804286Y821242D01*
X804324D01*
X804435Y821224D01*
D02*
G37*
G36*
X786196Y815761D02*
X786344Y815706D01*
X786492Y815595D01*
X786510D01*
X786529Y815558D01*
X786603Y815483D01*
X786677Y815335D01*
X786714Y815243D01*
Y815132D01*
Y813484D01*
X788362D01*
X788473Y813465D01*
X788621Y813391D01*
X788714Y813354D01*
X788788Y813280D01*
X788807D01*
X788825Y813243D01*
X788899Y813150D01*
X788955Y813002D01*
X788992Y812928D01*
Y812836D01*
Y812817D01*
Y812799D01*
X788973Y812706D01*
X788918Y812558D01*
X788807Y812410D01*
X788770Y812373D01*
X788677Y812317D01*
X788529Y812243D01*
X788436Y812225D01*
X788325Y812206D01*
X786714D01*
Y810558D01*
Y810540D01*
Y810503D01*
X786696Y810391D01*
X786640Y810243D01*
X786529Y810095D01*
X786492Y810077D01*
X786399Y810021D01*
X786233Y809947D01*
X786048Y809929D01*
X786029D01*
X785955Y809947D01*
X785825Y809984D01*
X785640Y810058D01*
X785603Y810095D01*
X785529Y810188D01*
X785455Y810336D01*
X785437Y810447D01*
X785418Y810558D01*
Y812206D01*
X783715D01*
X783603Y812225D01*
X783455Y812280D01*
X783307Y812373D01*
Y812391D01*
X783289Y812410D01*
X783233Y812502D01*
X783159Y812651D01*
X783140Y812836D01*
Y812854D01*
X783159Y812947D01*
X783196Y813058D01*
X783289Y813224D01*
Y813243D01*
X783326Y813261D01*
X783400Y813354D01*
X783548Y813447D01*
X783659Y813465D01*
X783770Y813484D01*
X785418D01*
Y815132D01*
Y815150D01*
Y815169D01*
X785437Y815261D01*
X785492Y815409D01*
X785603Y815558D01*
Y815576D01*
X785640Y815595D01*
X785733Y815669D01*
X785863Y815743D01*
X785955Y815780D01*
X786085D01*
X786196Y815761D01*
D02*
G37*
G36*
X795306Y821224D02*
X795454Y821150D01*
X795528Y821113D01*
X795602Y821039D01*
X795621D01*
X795639Y821002D01*
X795713Y820909D01*
X795787Y820761D01*
X795824Y820687D01*
Y820594D01*
Y820576D01*
Y820557D01*
X795806Y820464D01*
X795750Y820316D01*
X795639Y820168D01*
X795602Y820131D01*
X795510Y820076D01*
X795361Y820002D01*
X795269Y819983D01*
X795158Y819965D01*
X791251D01*
Y815743D01*
X792991D01*
X793084Y815724D01*
X793195D01*
X793306Y815706D01*
X793584Y815632D01*
X793917Y815539D01*
X794269Y815372D01*
X794621Y815169D01*
X794788Y815021D01*
X794954Y814873D01*
X794973Y814854D01*
X794991Y814836D01*
X795084Y814724D01*
X795232Y814539D01*
X795398Y814298D01*
X795547Y814002D01*
X795695Y813650D01*
X795787Y813243D01*
X795824Y813039D01*
Y812817D01*
Y811003D01*
Y810984D01*
Y810947D01*
Y810891D01*
X795806Y810799D01*
Y810706D01*
X795787Y810577D01*
X795713Y810299D01*
X795621Y809984D01*
X795454Y809632D01*
X795250Y809280D01*
X795102Y809114D01*
X794954Y808947D01*
X794936D01*
X794917Y808910D01*
X794862Y808873D01*
X794806Y808818D01*
X794621Y808669D01*
X794380Y808521D01*
X794065Y808373D01*
X793714Y808225D01*
X793325Y808132D01*
X793102Y808114D01*
X792880Y808095D01*
X790529D01*
X790417Y808114D01*
X790269Y808169D01*
X790121Y808262D01*
Y808281D01*
X790103Y808299D01*
X790047Y808392D01*
X789973Y808540D01*
X789955Y808725D01*
Y808744D01*
X789973Y808836D01*
X790010Y808947D01*
X790103Y809114D01*
Y809132D01*
X790140Y809151D01*
X790214Y809243D01*
X790362Y809336D01*
X790473Y809354D01*
X790584Y809373D01*
X792991D01*
X793121Y809392D01*
X793288Y809429D01*
X793473Y809484D01*
X793658Y809577D01*
X793862Y809688D01*
X794047Y809836D01*
X794065Y809855D01*
X794121Y809929D01*
X794195Y810021D01*
X794287Y810169D01*
X794380Y810336D01*
X794454Y810540D01*
X794510Y810762D01*
X794528Y811003D01*
Y812836D01*
Y812873D01*
Y812947D01*
X794510Y813076D01*
X794473Y813224D01*
X794417Y813410D01*
X794324Y813595D01*
X794213Y813799D01*
X794047Y813984D01*
X794028Y814002D01*
X793954Y814058D01*
X793862Y814132D01*
X793714Y814224D01*
X793547Y814317D01*
X793343Y814391D01*
X793121Y814447D01*
X792880Y814465D01*
X790566D01*
X790492Y814484D01*
X790380Y814502D01*
X790269Y814539D01*
X790158Y814613D01*
X790047Y814724D01*
X789973Y814891D01*
X789955Y815095D01*
Y820594D01*
Y820631D01*
X789973Y820705D01*
X789992Y820798D01*
X790029Y820927D01*
X790103Y821039D01*
X790214Y821150D01*
X790380Y821224D01*
X790584Y821242D01*
X795195D01*
X795306Y821224D01*
D02*
G37*
G36*
X734163Y720831D02*
X734311Y720775D01*
X734460Y720664D01*
X734478D01*
X734497Y720627D01*
X734571Y720553D01*
X734645Y720405D01*
X734682Y720312D01*
Y720201D01*
Y710609D01*
Y710591D01*
Y710554D01*
Y710498D01*
X734663Y710406D01*
Y710313D01*
X734645Y710183D01*
X734571Y709906D01*
X734478Y709591D01*
X734311Y709239D01*
X734108Y708887D01*
X733960Y708721D01*
X733811Y708554D01*
X733793D01*
X733774Y708517D01*
X733719Y708480D01*
X733663Y708425D01*
X733478Y708276D01*
X733238Y708128D01*
X732923Y707980D01*
X732571Y707832D01*
X732163Y707739D01*
X731941Y707721D01*
X731719Y707702D01*
X730701D01*
X730627Y707721D01*
X730516D01*
X730404Y707739D01*
X730127Y707813D01*
X729812Y707906D01*
X729479Y708054D01*
X729127Y708258D01*
X728942Y708387D01*
X728775Y708536D01*
X728756Y708554D01*
X728738Y708573D01*
X728701Y708628D01*
X728645Y708684D01*
X728497Y708869D01*
X728331Y709110D01*
X728164Y709424D01*
X728034Y709776D01*
X727923Y710165D01*
X727905Y710387D01*
X727886Y710609D01*
Y720201D01*
Y720219D01*
Y720238D01*
X727905Y720331D01*
X727960Y720479D01*
X728071Y720627D01*
Y720645D01*
X728108Y720664D01*
X728201Y720738D01*
X728331Y720812D01*
X728423Y720849D01*
X728553D01*
X728664Y720831D01*
X728812Y720775D01*
X728960Y720664D01*
X728979D01*
X728997Y720627D01*
X729071Y720553D01*
X729145Y720405D01*
X729182Y720312D01*
Y720201D01*
Y710609D01*
Y710572D01*
Y710498D01*
X729201Y710369D01*
X729238Y710221D01*
X729293Y710035D01*
X729386Y709850D01*
X729497Y709647D01*
X729664Y709461D01*
X729682Y709443D01*
X729756Y709387D01*
X729849Y709313D01*
X729997Y709221D01*
X730164Y709128D01*
X730367Y709054D01*
X730571Y708998D01*
X730812Y708980D01*
X731830D01*
X731960Y708998D01*
X732108Y709035D01*
X732293Y709091D01*
X732497Y709184D01*
X732701Y709295D01*
X732886Y709443D01*
X732904Y709461D01*
X732960Y709536D01*
X733052Y709628D01*
X733145Y709758D01*
X733219Y709924D01*
X733311Y710128D01*
X733367Y710350D01*
X733386Y710609D01*
Y720201D01*
Y720219D01*
Y720238D01*
X733404Y720331D01*
X733460Y720479D01*
X733571Y720627D01*
Y720645D01*
X733608Y720664D01*
X733700Y720738D01*
X733830Y720812D01*
X733923Y720849D01*
X734052D01*
X734163Y720831D01*
D02*
G37*
G36*
X753902D02*
X754013D01*
X754124Y720812D01*
X754402Y720738D01*
X754735Y720645D01*
X755087Y720479D01*
X755439Y720275D01*
X755605Y720127D01*
X755772Y719979D01*
X755791Y719960D01*
X755809Y719942D01*
X755920Y719831D01*
X756050Y719645D01*
X756217Y719405D01*
X756383Y719109D01*
X756531Y718757D01*
X756624Y718349D01*
X756643Y718146D01*
X756661Y717924D01*
Y710609D01*
Y710591D01*
Y710554D01*
Y710498D01*
X756643Y710406D01*
Y710313D01*
X756624Y710183D01*
X756550Y709906D01*
X756457Y709591D01*
X756291Y709239D01*
X756087Y708887D01*
X755939Y708721D01*
X755791Y708554D01*
X755772D01*
X755754Y708517D01*
X755698Y708480D01*
X755643Y708425D01*
X755457Y708276D01*
X755217Y708128D01*
X754902Y707980D01*
X754550Y707832D01*
X754143Y707739D01*
X753921Y707721D01*
X753698Y707702D01*
X750476D01*
X750402Y707721D01*
X750291Y707739D01*
X750180Y707776D01*
X750069Y707850D01*
X749958Y707962D01*
X749884Y708128D01*
X749865Y708332D01*
Y720201D01*
Y720238D01*
X749884Y720312D01*
X749902Y720405D01*
X749939Y720534D01*
X750014Y720645D01*
X750125Y720757D01*
X750291Y720831D01*
X750495Y720849D01*
X753809D01*
X753902Y720831D01*
D02*
G37*
G36*
X747903D02*
X748051Y720757D01*
X748125Y720720D01*
X748199Y720645D01*
X748217D01*
X748236Y720608D01*
X748310Y720516D01*
X748365Y720368D01*
X748403Y720294D01*
Y720201D01*
Y720182D01*
Y720164D01*
X748384Y720071D01*
X748328Y719923D01*
X748236Y719775D01*
X748199Y719738D01*
X748106Y719683D01*
X747958Y719609D01*
X747866Y719590D01*
X747755Y719572D01*
X743848D01*
Y715350D01*
X745958D01*
X746069Y715331D01*
X746218Y715257D01*
X746292Y715220D01*
X746366Y715146D01*
X746384D01*
X746403Y715109D01*
X746477Y715016D01*
X746551Y714868D01*
X746588Y714794D01*
Y714702D01*
Y714683D01*
Y714665D01*
X746569Y714572D01*
X746514Y714424D01*
X746403Y714276D01*
X746366Y714239D01*
X746273Y714183D01*
X746125Y714109D01*
X746032Y714090D01*
X745921Y714072D01*
X743848D01*
Y708980D01*
X747792D01*
X747903Y708961D01*
X748051Y708887D01*
X748125Y708850D01*
X748199Y708776D01*
X748217D01*
X748236Y708739D01*
X748310Y708647D01*
X748365Y708499D01*
X748403Y708425D01*
Y708332D01*
Y708313D01*
Y708295D01*
X748384Y708202D01*
X748328Y708054D01*
X748236Y707906D01*
X748199Y707869D01*
X748106Y707813D01*
X747958Y707739D01*
X747866Y707721D01*
X747755Y707702D01*
X743162D01*
X743088Y707721D01*
X742977Y707739D01*
X742866Y707776D01*
X742755Y707850D01*
X742644Y707962D01*
X742570Y708128D01*
X742551Y708332D01*
Y720201D01*
Y720238D01*
X742570Y720312D01*
X742588Y720405D01*
X742625Y720534D01*
X742700Y720645D01*
X742811Y720757D01*
X742977Y720831D01*
X743181Y720849D01*
X747792D01*
X747903Y720831D01*
D02*
G37*
G36*
X736904D02*
X737052Y720775D01*
X737200Y720664D01*
X737218D01*
X737237Y720627D01*
X737311Y720553D01*
X737385Y720405D01*
X737422Y720312D01*
Y720201D01*
Y708980D01*
X740459D01*
X740570Y708961D01*
X740718Y708887D01*
X740792Y708850D01*
X740866Y708776D01*
X740885D01*
X740903Y708739D01*
X740977Y708647D01*
X741033Y708499D01*
X741070Y708425D01*
Y708332D01*
Y708313D01*
Y708295D01*
X741051Y708202D01*
X740996Y708054D01*
X740903Y707906D01*
X740866Y707869D01*
X740774Y707813D01*
X740626Y707739D01*
X740533Y707721D01*
X740422Y707702D01*
X736737D01*
X736663Y707721D01*
X736552Y707739D01*
X736441Y707776D01*
X736330Y707850D01*
X736219Y707962D01*
X736145Y708128D01*
X736126Y708332D01*
Y720201D01*
Y720219D01*
Y720238D01*
X736145Y720331D01*
X736200Y720479D01*
X736311Y720627D01*
Y720645D01*
X736348Y720664D01*
X736441Y720738D01*
X736571Y720812D01*
X736663Y720849D01*
X736793D01*
X736904Y720831D01*
D02*
G37*
G36*
X884854Y904020D02*
X884877D01*
X884936Y904008D01*
X885018Y904020D01*
X885219Y903984D01*
X885478Y903937D01*
X885784Y903843D01*
X886102Y903713D01*
X886421Y903513D01*
X886574Y903383D01*
X886727Y903254D01*
X888200Y901781D01*
X888259Y901699D01*
X888306Y901557D01*
X888341Y901475D01*
Y901380D01*
X888353Y901369D01*
X888341Y901333D01*
X888329Y901227D01*
X888270Y901098D01*
X888247Y901027D01*
X888188Y900968D01*
X888176Y900956D01*
X888164Y900944D01*
X888094Y900897D01*
X887964Y900838D01*
X887799Y900815D01*
X887752D01*
X887658Y900838D01*
X887516Y900885D01*
X887446Y900933D01*
X887363Y900992D01*
X885843Y902511D01*
X885749Y902582D01*
X885631Y902653D01*
X885478Y902735D01*
X885301Y902794D01*
X885101Y902853D01*
X884877Y902865D01*
X884854D01*
X884783D01*
X884665Y902841D01*
X884524Y902818D01*
X884359Y902771D01*
X884182Y902688D01*
X884005Y902582D01*
X883829Y902429D01*
X879174Y897775D01*
X879151Y897751D01*
X879104Y897704D01*
X879033Y897610D01*
X878951Y897480D01*
X878868Y897327D01*
X878809Y897151D01*
X878750Y896950D01*
X878739Y896726D01*
Y896703D01*
X878750Y896620D01*
X878762Y896514D01*
X878809Y896373D01*
X878856Y896208D01*
X878927Y896043D01*
X879033Y895866D01*
X879174Y895701D01*
X880647Y894229D01*
X880706Y894146D01*
X880753Y894005D01*
X880789Y893922D01*
Y893828D01*
X880800Y893816D01*
X880789Y893781D01*
X880777Y893675D01*
X880718Y893545D01*
X880694Y893475D01*
X880636Y893416D01*
X880624Y893404D01*
X880612Y893392D01*
X880541Y893345D01*
X880412Y893286D01*
X880247Y893262D01*
X880200D01*
X880105Y893286D01*
X879964Y893333D01*
X879893Y893380D01*
X879811Y893439D01*
X878291Y894959D01*
X878255Y895018D01*
X878185Y895089D01*
X878126Y895171D01*
X877996Y895395D01*
X877855Y895654D01*
X877725Y895972D01*
X877643Y896314D01*
X877607Y896514D01*
X877596Y896715D01*
Y896738D01*
Y896762D01*
X877607Y896821D01*
Y896891D01*
X877631Y897104D01*
X877678Y897363D01*
X877773Y897669D01*
X877914Y897975D01*
X878091Y898294D01*
X878220Y898447D01*
X878350Y898600D01*
X883004Y903254D01*
X883016Y903266D01*
X883039Y903289D01*
X883074Y903324D01*
X883145Y903372D01*
X883204Y903430D01*
X883287Y903489D01*
X883510Y903619D01*
X883781Y903772D01*
X884088Y903890D01*
X884441Y903984D01*
X884630Y904008D01*
X884830Y904020D01*
X884854D01*
D02*
G37*
G36*
X887186Y897374D02*
X887292Y897363D01*
X887434D01*
X887610Y897327D01*
X887823Y897257D01*
X888046Y897174D01*
X888270Y897045D01*
X888482Y896856D01*
X889743Y895595D01*
X889814Y895478D01*
X889920Y895324D01*
X890014Y895136D01*
X890108Y894924D01*
X890167Y894676D01*
X890179Y894405D01*
Y894382D01*
X890167Y894276D01*
X890155Y894146D01*
X890120Y893946D01*
X890061Y893746D01*
X889967Y893533D01*
X889837Y893310D01*
X889661Y893109D01*
X886173Y889622D01*
X886150Y889598D01*
X886091Y889539D01*
X885961Y889457D01*
X885820Y889363D01*
X885619Y889257D01*
X885419Y889174D01*
X885172Y889115D01*
X884889Y889092D01*
X884865D01*
X884759Y889103D01*
X884618Y889127D01*
X884453Y889174D01*
X884253Y889233D01*
X884041Y889327D01*
X883817Y889457D01*
X883605Y889645D01*
X882415Y890835D01*
X882356Y890918D01*
X882273Y891024D01*
X882167Y891177D01*
X882073Y891366D01*
X881979Y891578D01*
X881920Y891825D01*
X881896Y892084D01*
Y892108D01*
X881908Y892214D01*
X881920Y892344D01*
X881967Y892508D01*
X882026Y892709D01*
X882132Y892933D01*
X882262Y893157D01*
X882438Y893357D01*
X885926Y896844D01*
X885949Y896868D01*
X886020Y896915D01*
X886126Y896997D01*
X886267Y897092D01*
X886432Y897186D01*
X886656Y897268D01*
X886892Y897339D01*
X887163Y897374D01*
X887186D01*
D02*
G37*
G36*
X899463Y890282D02*
X899569Y890270D01*
X899699Y890235D01*
X899781Y890199D01*
X899864Y890117D01*
X899923Y890034D01*
X899982Y889905D01*
X900005Y889740D01*
X900017Y889728D01*
X900005Y889693D01*
Y889598D01*
X899958Y889457D01*
X899923Y889374D01*
X899852Y889304D01*
X897943Y887395D01*
X898721Y886617D01*
X898780Y886535D01*
X898827Y886394D01*
X898839Y886311D01*
Y886217D01*
X898851Y886205D01*
X898839Y886170D01*
X898827Y886064D01*
X898792Y885934D01*
X898756Y885852D01*
X898709Y885804D01*
X898698Y885793D01*
X898686Y885781D01*
X898615Y885734D01*
X898485Y885675D01*
X898320Y885651D01*
X898273D01*
X898179Y885675D01*
X898038Y885722D01*
X897967Y885769D01*
X897885Y885828D01*
X897130Y886582D01*
X892300Y881751D01*
X892288Y881740D01*
X892264Y881716D01*
X892182Y881657D01*
X892052Y881598D01*
X891887Y881575D01*
X891852Y881586D01*
X891758Y881610D01*
X891605Y881669D01*
X891475Y881775D01*
X891463Y881787D01*
X891428Y881846D01*
X891369Y881952D01*
X891286Y882105D01*
Y882152D01*
X891298Y882258D01*
X891357Y882411D01*
X891416Y882494D01*
X891475Y882576D01*
X896306Y887407D01*
X896105Y887607D01*
X896047Y887690D01*
X895988Y887819D01*
X895952Y887972D01*
X895964Y887984D01*
Y888008D01*
X895999Y888114D01*
X896047Y888255D01*
X896141Y888373D01*
X896152Y888385D01*
X896223Y888432D01*
X896318Y888479D01*
X896482Y888526D01*
X896494Y888538D01*
X896530Y888526D01*
X896636Y888538D01*
X896789Y888503D01*
X896871Y888444D01*
X896954Y888385D01*
X897119Y888220D01*
X899027Y890128D01*
X899039Y890140D01*
X899051Y890152D01*
X899122Y890199D01*
X899251Y890258D01*
X899416Y890282D01*
X899428Y890293D01*
X899463Y890282D01*
D02*
G37*
G36*
X891982Y893239D02*
X892135Y893180D01*
X892276Y893062D01*
X894409Y890930D01*
X894480Y890812D01*
X894585Y890659D01*
X894680Y890470D01*
X894774Y890258D01*
X894833Y890011D01*
X894845Y889740D01*
Y889716D01*
X894833Y889610D01*
X894821Y889480D01*
X894786Y889280D01*
X894727Y889080D01*
X894633Y888868D01*
X894503Y888644D01*
X894326Y888444D01*
X889967Y884084D01*
X889955Y884072D01*
X889932Y884049D01*
X889849Y883990D01*
X889719Y883931D01*
X889555Y883907D01*
X889519Y883919D01*
X889425Y883943D01*
X889272Y884002D01*
X889142Y884108D01*
X889130Y884120D01*
X889095Y884178D01*
X889036Y884285D01*
X888966Y884449D01*
Y884497D01*
X888977Y884603D01*
X889024Y884744D01*
X889083Y884827D01*
X889142Y884909D01*
X893502Y889268D01*
X893513Y889280D01*
X893537Y889304D01*
X893560Y889351D01*
X893608Y889398D01*
X893667Y889551D01*
X893690Y889645D01*
Y889740D01*
Y889763D01*
Y889787D01*
X893667Y889905D01*
X893608Y890058D01*
X893572Y890140D01*
X891887Y891825D01*
X887057Y886994D01*
X887045Y886983D01*
X887021Y886959D01*
X886939Y886900D01*
X886809Y886841D01*
X886644Y886818D01*
X886609Y886830D01*
X886515Y886853D01*
X886362Y886912D01*
X886232Y887018D01*
X886220Y887030D01*
X886185Y887089D01*
X886126Y887195D01*
X886055Y887360D01*
Y887407D01*
X886067Y887513D01*
X886114Y887654D01*
X886173Y887737D01*
X886232Y887819D01*
X891463Y893050D01*
X891487Y893074D01*
X891546Y893109D01*
X891616Y893157D01*
X891722Y893215D01*
X891840Y893239D01*
X891982D01*
D02*
G37*
G36*
X900147Y885074D02*
X900300Y885015D01*
X900441Y884897D01*
X901973Y883365D01*
X902044Y883271D01*
X902126Y883142D01*
X902220Y883000D01*
X902303Y882824D01*
X902374Y882635D01*
X902421Y882423D01*
Y882399D01*
X902432Y882317D01*
X902444Y882211D01*
Y882046D01*
X902421Y881881D01*
X902397Y881693D01*
X902338Y881469D01*
X902256Y881268D01*
X902150Y881139D01*
X902138Y881127D01*
X902126Y881115D01*
X902044Y881056D01*
X901914Y880997D01*
X901749Y880974D01*
X901737Y880985D01*
X901702Y880974D01*
X901596Y881009D01*
X901466Y881068D01*
X901325Y881162D01*
X901290Y881198D01*
X901266Y881245D01*
X901231Y881327D01*
X901195Y881410D01*
X901183Y881516D01*
Y881657D01*
X901207Y881798D01*
X901219Y881810D01*
Y881834D01*
X901266Y881928D01*
X901290Y882069D01*
X901278Y882246D01*
X901266Y882258D01*
Y882282D01*
X901231Y882388D01*
X901172Y882517D01*
X901077Y882635D01*
X900052Y883660D01*
X895222Y878829D01*
X895210Y878818D01*
X895186Y878794D01*
X895104Y878735D01*
X894974Y878676D01*
X894809Y878653D01*
X894774Y878664D01*
X894680Y878688D01*
X894527Y878747D01*
X894397Y878853D01*
X894385Y878865D01*
X894350Y878924D01*
X894291Y879030D01*
X894220Y879195D01*
Y879242D01*
X894232Y879348D01*
X894279Y879489D01*
X894338Y879572D01*
X894397Y879654D01*
X899628Y884885D01*
X899652Y884909D01*
X899711Y884944D01*
X899781Y884992D01*
X899887Y885050D01*
X900005Y885074D01*
X900147D01*
D02*
G37*
G36*
X904094Y880467D02*
X904200Y880455D01*
X904341D01*
X904518Y880420D01*
X904730Y880349D01*
X904954Y880267D01*
X905178Y880137D01*
X905390Y879949D01*
X906650Y878688D01*
X906721Y878570D01*
X906827Y878417D01*
X906921Y878229D01*
X907016Y878017D01*
X907075Y877769D01*
X907086Y877498D01*
Y877475D01*
X907075Y877368D01*
X907063Y877239D01*
X907027Y877039D01*
X906969Y876838D01*
X906874Y876626D01*
X906745Y876402D01*
X906568Y876202D01*
X903080Y872714D01*
X903057Y872691D01*
X902998Y872632D01*
X902868Y872550D01*
X902727Y872455D01*
X902527Y872349D01*
X902326Y872267D01*
X902079Y872208D01*
X901796Y872184D01*
X901773D01*
X901666Y872196D01*
X901525Y872220D01*
X901360Y872267D01*
X901160Y872326D01*
X900948Y872420D01*
X900724Y872550D01*
X900512Y872738D01*
X899322Y873928D01*
X899263Y874010D01*
X899181Y874117D01*
X899074Y874270D01*
X898980Y874458D01*
X898886Y874670D01*
X898827Y874918D01*
X898803Y875177D01*
Y875201D01*
X898815Y875307D01*
X898827Y875436D01*
X898874Y875601D01*
X898933Y875801D01*
X899039Y876025D01*
X899169Y876249D01*
X899345Y876450D01*
X902833Y879937D01*
X902857Y879960D01*
X902927Y880008D01*
X903033Y880090D01*
X903175Y880184D01*
X903340Y880279D01*
X903564Y880361D01*
X903799Y880432D01*
X904070Y880467D01*
X904094D01*
D02*
G37*
G36*
X911128Y878617D02*
X911234Y878606D01*
X911363Y878570D01*
X911446Y878535D01*
X911528Y878452D01*
X911587Y878370D01*
X911646Y878240D01*
X911670Y878075D01*
X911681Y878064D01*
X911670Y878028D01*
Y877934D01*
X911622Y877793D01*
X911587Y877710D01*
X911516Y877639D01*
X904836Y870959D01*
X904824Y870947D01*
X904801Y870924D01*
X904777Y870876D01*
X904730Y870829D01*
X904671Y870676D01*
X904636Y870594D01*
Y870499D01*
X904647Y870488D01*
X904636Y870452D01*
X904671Y870346D01*
X904718Y870205D01*
X904765Y870134D01*
X904824Y870052D01*
X905142Y869734D01*
X905201Y869651D01*
X905248Y869510D01*
X905272Y869416D01*
Y869321D01*
X905284Y869309D01*
X905272Y869274D01*
X905260Y869168D01*
X905213Y869050D01*
X905178Y868968D01*
X905130Y868921D01*
X905119Y868909D01*
X905107Y868897D01*
X905036Y868850D01*
X904907Y868791D01*
X904753Y868756D01*
X904706D01*
X904612Y868779D01*
X904471Y868826D01*
X904400Y868874D01*
X904317Y868932D01*
X903988Y869262D01*
X903941Y869333D01*
X903846Y869451D01*
X903752Y869592D01*
X903658Y869781D01*
X903575Y870005D01*
X903505Y870240D01*
X903493Y870511D01*
X903505Y870547D01*
Y870641D01*
X903528Y870782D01*
X903564Y870959D01*
X903622Y871159D01*
X903717Y871371D01*
X903835Y871583D01*
X904011Y871784D01*
X910692Y878464D01*
X910703Y878476D01*
X910715Y878488D01*
X910786Y878535D01*
X910916Y878594D01*
X911080Y878617D01*
X911092Y878629D01*
X911128Y878617D01*
D02*
G37*
G36*
X909631Y862935D02*
X908818Y862122D01*
X903929Y867012D01*
X904742Y867825D01*
X909631Y862935D01*
D02*
G37*
G36*
X916347Y868214D02*
X916453Y868202D01*
X916594D01*
X916771Y868167D01*
X916983Y868096D01*
X917207Y868014D01*
X917431Y867884D01*
X917643Y867695D01*
X918904Y866435D01*
X918974Y866317D01*
X919081Y866164D01*
X919175Y865975D01*
X919269Y865763D01*
X919328Y865516D01*
X919352Y865233D01*
Y865209D01*
X919340Y865103D01*
X919328Y864974D01*
X919281Y864785D01*
X919222Y864585D01*
X919128Y864373D01*
X918998Y864149D01*
X918821Y863949D01*
X917077Y862205D01*
X917066Y862193D01*
X917007Y862158D01*
X916924Y862099D01*
X916818Y862064D01*
X916701Y862040D01*
X916547Y862052D01*
X916394Y862111D01*
X916241Y862240D01*
X913767Y864715D01*
X912424Y863371D01*
X912412Y863360D01*
X912388Y863336D01*
X912365Y863289D01*
X912318Y863242D01*
X912259Y863089D01*
X912223Y863006D01*
Y862912D01*
X912235Y862900D01*
X912223Y862865D01*
X912259Y862759D01*
X912306Y862617D01*
X912353Y862547D01*
X912412Y862464D01*
X914474Y860402D01*
X914533Y860320D01*
X914580Y860178D01*
X914603Y860108D01*
Y860013D01*
X914615Y860002D01*
X914603Y859966D01*
X914592Y859860D01*
X914544Y859719D01*
X914521Y859648D01*
X914462Y859589D01*
X914450Y859577D01*
X914438Y859566D01*
X914368Y859519D01*
X914238Y859460D01*
X914073Y859436D01*
X914026D01*
X913932Y859460D01*
X913790Y859507D01*
X913720Y859554D01*
X913637Y859613D01*
X911575Y861675D01*
X911516Y861757D01*
X911434Y861863D01*
X911328Y862016D01*
X911234Y862205D01*
X911139Y862417D01*
X911080Y862664D01*
X911057Y862924D01*
Y862947D01*
X911069Y863053D01*
X911080Y863183D01*
X911128Y863348D01*
X911187Y863548D01*
X911292Y863772D01*
X911422Y863996D01*
X911599Y864196D01*
X915086Y867684D01*
X915110Y867707D01*
X915181Y867754D01*
X915287Y867837D01*
X915428Y867931D01*
X915593Y868025D01*
X915817Y868108D01*
X916052Y868178D01*
X916323Y868214D01*
X916347D01*
D02*
G37*
G36*
X925678Y858882D02*
X925785Y858870D01*
X925926D01*
X926103Y858835D01*
X926315Y858764D01*
X926539Y858682D01*
X926762Y858552D01*
X926974Y858364D01*
X929036Y856302D01*
X929095Y856220D01*
X929142Y856078D01*
X929178Y855996D01*
Y855901D01*
X929190Y855890D01*
X929178Y855854D01*
X929166Y855748D01*
X929107Y855619D01*
X929083Y855548D01*
X929025Y855489D01*
X929013Y855477D01*
X929001Y855465D01*
X928930Y855418D01*
X928801Y855359D01*
X928636Y855336D01*
X928589D01*
X928494Y855359D01*
X928353Y855407D01*
X928282Y855454D01*
X928200Y855513D01*
X926126Y857586D01*
X926079Y857610D01*
X926044Y857645D01*
X925891Y857704D01*
X925796Y857728D01*
X925702D01*
X925655D01*
X925549Y857692D01*
X925407Y857645D01*
X925325Y857586D01*
X925242Y857527D01*
X921755Y854040D01*
X921743Y854028D01*
X921720Y854005D01*
X921696Y853957D01*
X921649Y853910D01*
X921590Y853757D01*
X921555Y853675D01*
Y853580D01*
X921566Y853569D01*
X921555Y853533D01*
X921590Y853427D01*
X921637Y853286D01*
X921684Y853215D01*
X921743Y853133D01*
X923805Y851071D01*
X923864Y850988D01*
X923911Y850847D01*
X923947Y850764D01*
Y850670D01*
X923958Y850658D01*
X923947Y850623D01*
X923935Y850517D01*
X923876Y850387D01*
X923852Y850317D01*
X923793Y850258D01*
X923782Y850246D01*
X923770Y850234D01*
X923699Y850187D01*
X923569Y850128D01*
X923404Y850105D01*
X923357D01*
X923263Y850128D01*
X923122Y850175D01*
X923051Y850222D01*
X922969Y850281D01*
X920907Y852343D01*
X920848Y852426D01*
X920765Y852532D01*
X920659Y852685D01*
X920565Y852874D01*
X920471Y853085D01*
X920412Y853333D01*
X920388Y853592D01*
Y853616D01*
X920400Y853722D01*
X920412Y853851D01*
X920459Y854016D01*
X920518Y854217D01*
X920624Y854441D01*
X920754Y854664D01*
X920930Y854865D01*
X924418Y858352D01*
X924441Y858376D01*
X924512Y858423D01*
X924618Y858505D01*
X924760Y858600D01*
X924924Y858694D01*
X925148Y858776D01*
X925384Y858847D01*
X925655Y858882D01*
X925678D01*
D02*
G37*
G36*
X921142Y864078D02*
X921295Y864019D01*
X921437Y863902D01*
X923569Y861769D01*
X923640Y861651D01*
X923746Y861498D01*
X923840Y861310D01*
X923935Y861097D01*
X923994Y860850D01*
X924005Y860579D01*
Y860555D01*
X923994Y860449D01*
X923982Y860320D01*
X923947Y860119D01*
X923888Y859919D01*
X923793Y859707D01*
X923664Y859483D01*
X923487Y859283D01*
X919128Y854923D01*
X919116Y854912D01*
X919092Y854888D01*
X919010Y854829D01*
X918880Y854770D01*
X918715Y854747D01*
X918680Y854759D01*
X918586Y854782D01*
X918432Y854841D01*
X918303Y854947D01*
X918291Y854959D01*
X918256Y855018D01*
X918197Y855124D01*
X918126Y855289D01*
Y855336D01*
X918138Y855442D01*
X918185Y855583D01*
X918244Y855666D01*
X918303Y855748D01*
X922662Y860108D01*
X922674Y860119D01*
X922698Y860143D01*
X922721Y860190D01*
X922768Y860237D01*
X922827Y860390D01*
X922851Y860485D01*
Y860579D01*
Y860602D01*
Y860626D01*
X922827Y860744D01*
X922768Y860897D01*
X922733Y860980D01*
X921048Y862664D01*
X916217Y857834D01*
X916206Y857822D01*
X916182Y857798D01*
X916100Y857739D01*
X915970Y857681D01*
X915805Y857657D01*
X915770Y857669D01*
X915676Y857692D01*
X915522Y857751D01*
X915393Y857857D01*
X915381Y857869D01*
X915346Y857928D01*
X915287Y858034D01*
X915216Y858199D01*
Y858246D01*
X915228Y858352D01*
X915275Y858493D01*
X915334Y858576D01*
X915393Y858659D01*
X920624Y863890D01*
X920648Y863913D01*
X920706Y863949D01*
X920777Y863996D01*
X920883Y864055D01*
X921001Y864078D01*
X921142D01*
D02*
G37*
G36*
X930344Y854217D02*
X930450Y854205D01*
X930592D01*
X930768Y854169D01*
X930980Y854099D01*
X931204Y854016D01*
X931428Y853887D01*
X931640Y853698D01*
X932901Y852438D01*
X932972Y852320D01*
X933078Y852167D01*
X933172Y851978D01*
X933266Y851766D01*
X933325Y851518D01*
X933337Y851247D01*
Y851224D01*
X933325Y851118D01*
X933313Y850988D01*
X933278Y850788D01*
X933219Y850588D01*
X933125Y850376D01*
X932995Y850152D01*
X932818Y849951D01*
X929331Y846464D01*
X929307Y846440D01*
X929248Y846382D01*
X929119Y846299D01*
X928977Y846205D01*
X928777Y846099D01*
X928577Y846016D01*
X928329Y845957D01*
X928047Y845934D01*
X928023D01*
X927917Y845946D01*
X927776Y845969D01*
X927611Y846016D01*
X927410Y846075D01*
X927198Y846170D01*
X926974Y846299D01*
X926762Y846488D01*
X925572Y847678D01*
X925514Y847760D01*
X925431Y847866D01*
X925325Y848019D01*
X925231Y848208D01*
X925136Y848420D01*
X925078Y848667D01*
X925054Y848926D01*
Y848950D01*
X925066Y849056D01*
X925078Y849186D01*
X925125Y849351D01*
X925184Y849551D01*
X925290Y849775D01*
X925419Y849999D01*
X925596Y850199D01*
X929083Y853686D01*
X929107Y853710D01*
X929178Y853757D01*
X929284Y853840D01*
X929425Y853934D01*
X929590Y854028D01*
X929814Y854111D01*
X930050Y854181D01*
X930321Y854217D01*
X930344D01*
D02*
G37*
G36*
X935045Y849563D02*
X935151Y849551D01*
X935293Y849527D01*
X935469Y849492D01*
X935670Y849433D01*
X935882Y849339D01*
X936106Y849209D01*
X936318Y849021D01*
X937944Y847395D01*
X939852Y849304D01*
X939864Y849315D01*
X939876Y849327D01*
X939947Y849374D01*
X940076Y849433D01*
X940241Y849457D01*
X940253Y849468D01*
X940288Y849457D01*
X940394Y849445D01*
X940524Y849409D01*
X940606Y849374D01*
X940689Y849292D01*
X940748Y849209D01*
X940807Y849080D01*
X940830Y848915D01*
X940842Y848903D01*
X940830Y848867D01*
Y848773D01*
X940783Y848632D01*
X940748Y848549D01*
X940677Y848479D01*
X933125Y840926D01*
X933113Y840915D01*
X933054Y840879D01*
X932972Y840820D01*
X932877Y840773D01*
X932748Y840761D01*
X932606D01*
X932453Y840820D01*
X932300Y840950D01*
X930250Y843000D01*
X930191Y843083D01*
X930108Y843189D01*
X930003Y843342D01*
X929908Y843530D01*
X929814Y843742D01*
X929755Y843990D01*
X929720Y844261D01*
Y844284D01*
X929732Y844390D01*
X929755Y844532D01*
X929802Y844697D01*
X929861Y844897D01*
X929955Y845109D01*
X930085Y845333D01*
X930262Y845533D01*
X933749Y849021D01*
X933761Y849033D01*
X933773Y849044D01*
X933855Y849103D01*
X933961Y849186D01*
X934114Y849292D01*
X934303Y849386D01*
X934515Y849480D01*
X934762Y849539D01*
X935022Y849563D01*
X935045D01*
D02*
G37*
G36*
X939676Y844885D02*
X939782Y844873D01*
X939923D01*
X940100Y844838D01*
X940312Y844767D01*
X940536Y844685D01*
X940760Y844555D01*
X940972Y844367D01*
X942232Y843106D01*
X942303Y842988D01*
X942409Y842835D01*
X942503Y842647D01*
X942598Y842434D01*
X942656Y842187D01*
X942680Y841904D01*
Y841881D01*
X942668Y841775D01*
X942656Y841645D01*
X942609Y841457D01*
X942550Y841256D01*
X942456Y841044D01*
X942327Y840820D01*
X942150Y840620D01*
X940406Y838876D01*
X940394Y838865D01*
X940335Y838829D01*
X940253Y838770D01*
X940147Y838735D01*
X940029Y838711D01*
X939876Y838723D01*
X939723Y838782D01*
X939569Y838912D01*
X937095Y841386D01*
X935752Y840043D01*
X935740Y840031D01*
X935717Y840007D01*
X935693Y839960D01*
X935646Y839913D01*
X935587Y839760D01*
X935552Y839678D01*
Y839583D01*
X935564Y839572D01*
X935552Y839536D01*
X935587Y839430D01*
X935634Y839289D01*
X935682Y839218D01*
X935740Y839136D01*
X937802Y837074D01*
X937861Y836991D01*
X937908Y836850D01*
X937932Y836779D01*
Y836685D01*
X937944Y836673D01*
X937932Y836638D01*
X937920Y836532D01*
X937873Y836390D01*
X937849Y836320D01*
X937791Y836261D01*
X937779Y836249D01*
X937767Y836237D01*
X937696Y836190D01*
X937567Y836131D01*
X937402Y836107D01*
X937355D01*
X937260Y836131D01*
X937119Y836178D01*
X937048Y836225D01*
X936966Y836284D01*
X934904Y838346D01*
X934845Y838429D01*
X934762Y838535D01*
X934656Y838688D01*
X934562Y838876D01*
X934468Y839088D01*
X934409Y839336D01*
X934385Y839595D01*
Y839619D01*
X934397Y839725D01*
X934409Y839854D01*
X934456Y840019D01*
X934515Y840219D01*
X934621Y840443D01*
X934751Y840667D01*
X934927Y840867D01*
X938415Y844355D01*
X938438Y844379D01*
X938509Y844426D01*
X938615Y844508D01*
X938757Y844602D01*
X938922Y844697D01*
X939145Y844779D01*
X939381Y844850D01*
X939652Y844885D01*
X939676D01*
D02*
G37*
G36*
X944471Y840750D02*
X944624Y840691D01*
X944765Y840573D01*
X946297Y839041D01*
X946368Y838947D01*
X946450Y838817D01*
X946544Y838676D01*
X946627Y838499D01*
X946698Y838311D01*
X946745Y838099D01*
Y838075D01*
X946757Y837993D01*
X946768Y837887D01*
Y837722D01*
X946745Y837557D01*
X946721Y837368D01*
X946662Y837144D01*
X946580Y836944D01*
X946474Y836814D01*
X946462Y836803D01*
X946450Y836791D01*
X946368Y836732D01*
X946238Y836673D01*
X946073Y836649D01*
X946061Y836661D01*
X946026Y836649D01*
X945920Y836685D01*
X945790Y836744D01*
X945649Y836838D01*
X945614Y836873D01*
X945590Y836920D01*
X945555Y837003D01*
X945519Y837085D01*
X945508Y837191D01*
Y837333D01*
X945531Y837474D01*
X945543Y837486D01*
Y837510D01*
X945590Y837604D01*
X945614Y837745D01*
X945602Y837922D01*
X945590Y837934D01*
Y837957D01*
X945555Y838063D01*
X945496Y838193D01*
X945402Y838311D01*
X944377Y839336D01*
X939546Y834505D01*
X939534Y834493D01*
X939511Y834470D01*
X939428Y834411D01*
X939299Y834352D01*
X939134Y834328D01*
X939098Y834340D01*
X939004Y834364D01*
X938851Y834423D01*
X938721Y834529D01*
X938709Y834540D01*
X938674Y834599D01*
X938615Y834706D01*
X938544Y834870D01*
Y834918D01*
X938556Y835024D01*
X938603Y835165D01*
X938662Y835247D01*
X938721Y835330D01*
X943952Y840561D01*
X943976Y840585D01*
X944035Y840620D01*
X944106Y840667D01*
X944212Y840726D01*
X944330Y840750D01*
X944471D01*
D02*
G37*
%LPC*%
G36*
X837083Y583119D02*
X834546D01*
Y578008D01*
X837194D01*
X837324Y578027D01*
X837472Y578064D01*
X837657Y578120D01*
X837861Y578212D01*
X838064Y578323D01*
X838250Y578471D01*
X838268Y578490D01*
X838324Y578564D01*
X838416Y578657D01*
X838509Y578786D01*
X838583Y578953D01*
X838675Y579157D01*
X838731Y579379D01*
X838749Y579638D01*
Y581471D01*
Y581508D01*
Y581582D01*
X838731Y581712D01*
X838694Y581860D01*
X838620Y582045D01*
X838546Y582230D01*
X838416Y582434D01*
X838250Y582619D01*
X838231Y582638D01*
X838157Y582693D01*
X838064Y582786D01*
X837916Y582878D01*
X837749Y582952D01*
X837546Y583045D01*
X837324Y583101D01*
X837083Y583119D01*
D02*
G37*
G36*
X753698Y719572D02*
X751161D01*
Y708980D01*
X753809D01*
X753939Y708998D01*
X754087Y709035D01*
X754272Y709091D01*
X754476Y709184D01*
X754680Y709295D01*
X754865Y709443D01*
X754883Y709461D01*
X754939Y709536D01*
X755032Y709628D01*
X755124Y709758D01*
X755198Y709924D01*
X755291Y710128D01*
X755346Y710350D01*
X755365Y710609D01*
Y717924D01*
Y717961D01*
Y718035D01*
X755346Y718164D01*
X755309Y718312D01*
X755235Y718497D01*
X755161Y718683D01*
X755032Y718886D01*
X754865Y719072D01*
X754846Y719090D01*
X754772Y719146D01*
X754680Y719238D01*
X754532Y719331D01*
X754365Y719405D01*
X754161Y719497D01*
X753939Y719553D01*
X753698Y719572D01*
D02*
G37*
G36*
X887163Y896220D02*
X887057Y896184D01*
X886915Y896137D01*
X886833Y896078D01*
X886750Y896020D01*
X883263Y892532D01*
X883251Y892520D01*
X883228Y892497D01*
X883204Y892449D01*
X883157Y892402D01*
X883098Y892249D01*
X883063Y892167D01*
Y892073D01*
X883074Y892061D01*
X883063Y892025D01*
X883098Y891919D01*
X883145Y891778D01*
X883192Y891707D01*
X883251Y891625D01*
X884453Y890423D01*
X884500Y890399D01*
X884547Y890352D01*
X884700Y890293D01*
X884783Y890258D01*
X884877D01*
X884901D01*
X884924D01*
X885042Y890282D01*
X885183Y890329D01*
X885278Y890376D01*
X885348Y890447D01*
X888836Y893934D01*
X888848Y893946D01*
X888871Y893969D01*
X888895Y894017D01*
X888942Y894064D01*
X889001Y894217D01*
X889013Y894299D01*
X889024Y894405D01*
Y894429D01*
Y894453D01*
X889001Y894570D01*
X888942Y894724D01*
X888907Y894806D01*
X887634Y896078D01*
X887587Y896102D01*
X887552Y896137D01*
X887398Y896196D01*
X887304Y896220D01*
X887210D01*
X887163D01*
D02*
G37*
G36*
X904070Y879313D02*
X903964Y879277D01*
X903823Y879230D01*
X903740Y879171D01*
X903658Y879112D01*
X900170Y875625D01*
X900158Y875613D01*
X900135Y875589D01*
X900111Y875542D01*
X900064Y875495D01*
X900005Y875342D01*
X899970Y875259D01*
Y875165D01*
X899982Y875153D01*
X899970Y875118D01*
X900005Y875012D01*
X900052Y874871D01*
X900099Y874800D01*
X900158Y874717D01*
X901360Y873516D01*
X901407Y873492D01*
X901454Y873445D01*
X901608Y873386D01*
X901690Y873351D01*
X901784D01*
X901808D01*
X901832D01*
X901949Y873374D01*
X902091Y873421D01*
X902185Y873469D01*
X902256Y873539D01*
X905743Y877027D01*
X905755Y877039D01*
X905779Y877062D01*
X905802Y877109D01*
X905849Y877156D01*
X905908Y877309D01*
X905920Y877392D01*
X905932Y877498D01*
Y877522D01*
Y877545D01*
X905908Y877663D01*
X905849Y877816D01*
X905814Y877899D01*
X904541Y879171D01*
X904494Y879195D01*
X904459Y879230D01*
X904306Y879289D01*
X904212Y879313D01*
X904117D01*
X904070D01*
D02*
G37*
G36*
X916323Y867059D02*
X916217Y867024D01*
X916076Y866977D01*
X915994Y866918D01*
X915911Y866859D01*
X914580Y865527D01*
X916665Y863442D01*
X917997Y864773D01*
X918008Y864785D01*
X918032Y864809D01*
X918055Y864856D01*
X918103Y864903D01*
X918161Y865056D01*
X918173Y865139D01*
X918185Y865245D01*
Y865268D01*
Y865292D01*
X918161Y865410D01*
X918103Y865563D01*
X918067Y865645D01*
X916795Y866918D01*
X916748Y866941D01*
X916712Y866977D01*
X916559Y867036D01*
X916465Y867059D01*
X916371D01*
X916323D01*
D02*
G37*
G36*
X930321Y853062D02*
X930215Y853027D01*
X930073Y852980D01*
X929991Y852921D01*
X929908Y852862D01*
X926421Y849374D01*
X926409Y849362D01*
X926385Y849339D01*
X926362Y849292D01*
X926315Y849245D01*
X926256Y849091D01*
X926220Y849009D01*
Y848915D01*
X926232Y848903D01*
X926220Y848867D01*
X926256Y848762D01*
X926303Y848620D01*
X926350Y848549D01*
X926409Y848467D01*
X927611Y847265D01*
X927658Y847242D01*
X927705Y847195D01*
X927858Y847136D01*
X927941Y847100D01*
X928035D01*
X928058D01*
X928082D01*
X928200Y847124D01*
X928341Y847171D01*
X928436Y847218D01*
X928506Y847289D01*
X931994Y850776D01*
X932005Y850788D01*
X932029Y850812D01*
X932053Y850859D01*
X932100Y850906D01*
X932159Y851059D01*
X932170Y851142D01*
X932182Y851247D01*
Y851271D01*
Y851295D01*
X932159Y851413D01*
X932100Y851566D01*
X932064Y851648D01*
X930792Y852921D01*
X930745Y852944D01*
X930709Y852980D01*
X930556Y853038D01*
X930462Y853062D01*
X930368D01*
X930321D01*
D02*
G37*
G36*
X934986Y848396D02*
X934880Y848361D01*
X934727Y848302D01*
X934656Y848255D01*
X934574Y848196D01*
X931086Y844708D01*
X931075Y844697D01*
X931051Y844673D01*
X931028Y844626D01*
X930980Y844579D01*
X930921Y844426D01*
X930886Y844343D01*
Y844249D01*
X930898Y844237D01*
X930886Y844202D01*
X930921Y844096D01*
X930969Y843954D01*
X931028Y843872D01*
X931086Y843790D01*
X932712Y842163D01*
X937131Y846582D01*
X935469Y848243D01*
X935422Y848267D01*
X935387Y848302D01*
X935222Y848373D01*
X935139Y848384D01*
X935033Y848396D01*
X935022Y848384D01*
X934986Y848396D01*
D02*
G37*
G36*
X939652Y843730D02*
X939546Y843695D01*
X939405Y843648D01*
X939322Y843589D01*
X939240Y843530D01*
X937908Y842199D01*
X939994Y840114D01*
X941325Y841445D01*
X941337Y841457D01*
X941360Y841480D01*
X941384Y841527D01*
X941431Y841574D01*
X941490Y841728D01*
X941502Y841810D01*
X941514Y841916D01*
Y841940D01*
Y841963D01*
X941490Y842081D01*
X941431Y842234D01*
X941396Y842317D01*
X940123Y843589D01*
X940076Y843613D01*
X940041Y843648D01*
X939888Y843707D01*
X939793Y843730D01*
X939699D01*
X939652D01*
D02*
G37*
%LPD*%
D10*
X852630Y472939D02*
G03*
X852630Y472939I-1250J0D01*
G01*
X917630Y827061D02*
G03*
X917630Y827061I-1250J0D01*
G01*
D11*
X756750Y548500D02*
G03*
X756750Y548500I-2000J0D01*
G01*
D12*
X774000Y788250D02*
G03*
X774000Y788250I-1250J0D01*
G01*
D13*
X834500Y692500D02*
D03*
D14*
X820000Y672250D02*
D03*
D15*
X773000Y577500D02*
Y596500D01*
X782998Y577502D02*
Y596502D01*
X748250Y578500D02*
X767250D01*
Y588500D01*
X748250Y578500D02*
Y588500D01*
X767250D01*
X834750Y484250D02*
X853750D01*
Y494250D01*
X834750Y484250D02*
Y494250D01*
X853750D01*
X823100Y788360D02*
X854850D01*
X823100Y806140D02*
X854850D01*
Y788360D02*
Y806140D01*
X823100Y788360D02*
Y806140D01*
X708750Y699750D02*
Y727750D01*
X726750Y699750D02*
X726750Y727750D01*
X709000Y724250D02*
X726250D01*
X709000Y722500D02*
X726250D01*
X709500Y720750D02*
X726750D01*
X855877Y484196D02*
Y518189D01*
X911880D01*
X855877Y484196D02*
X855883Y484189D01*
X911880D01*
Y518189D01*
X860000Y569750D02*
X879000D01*
X860002Y559752D02*
X879002D01*
X832000Y518750D02*
Y537750D01*
Y518750D02*
X842000D01*
X832000Y537750D02*
X842000D01*
Y518750D02*
Y537750D01*
X844000D02*
X844000Y518750D01*
X854000Y518750D01*
X844000Y537750D02*
X854000D01*
Y518750D02*
Y537750D01*
X834750Y506250D02*
X853750D01*
X834750Y496250D02*
Y506250D01*
X853750Y496250D02*
Y506250D01*
X834750Y496250D02*
X853750D01*
X914017Y474265D02*
X933017D01*
X914015Y484264D02*
X933015D01*
X890750Y549750D02*
X909750D01*
X890748Y559748D02*
X909748Y559748D01*
X884250Y559750D02*
X903250D01*
X884248Y569748D02*
X903248D01*
X916000Y542000D02*
X935000Y542000D01*
X915998Y551998D02*
X934998D01*
X916000Y532000D02*
X935000Y532000D01*
X915998Y541998D02*
X934998D01*
X864750Y559750D02*
X883750Y559750D01*
X864752Y549752D02*
X883752D01*
X914125Y531890D02*
X945875Y531890D01*
X914125Y514110D02*
X945875Y514110D01*
X914150Y514140D02*
X945900Y514140D01*
X914150Y496360D02*
X945900Y496360D01*
X914150Y496360D02*
Y514140D01*
X945900Y496360D02*
Y514140D01*
X914017Y484265D02*
X933017D01*
X914015Y494264D02*
X933015Y494264D01*
X748000Y505250D02*
X748000Y555250D01*
Y555250D02*
X787000Y555250D01*
X787000Y505250D02*
X787000Y555250D01*
X748000Y505250D02*
X787000Y505250D01*
X834004Y760503D02*
X853004Y760503D01*
X834002Y770501D02*
X853002D01*
X855880Y781811D02*
Y815811D01*
X911877Y815811D01*
X911883Y815804D01*
X855880Y781811D02*
X911883Y781811D01*
Y815804D01*
X914250Y793500D02*
X933250D01*
Y803500D01*
X914250Y793500D02*
Y803500D01*
X933250D01*
X834750Y815750D02*
X853750D01*
X834752Y805752D02*
X853752Y805752D01*
X834687Y825804D02*
X853687Y825804D01*
X834689Y815805D02*
X853689Y815805D01*
X914250Y762250D02*
X933250Y762250D01*
Y772250D01*
X914250Y762250D02*
Y772250D01*
X933250Y772250D01*
X914250Y805500D02*
X933250D01*
Y815500D01*
X914250Y805500D02*
Y815500D01*
X933250D01*
X914250Y750500D02*
X933250Y750500D01*
Y760500D01*
X914250Y750500D02*
Y760500D01*
X933250Y760500D01*
X833000Y685250D02*
X833000Y682250D01*
X830000Y685250D02*
X833000Y685250D01*
X830000Y615250D02*
X833000Y615250D01*
X833000Y618250D02*
X833000Y615250D01*
X763000D02*
X763000Y618250D01*
X763000Y615250D02*
X766000Y615250D01*
X763000Y685250D02*
X763000Y682250D01*
X763000Y685250D02*
X766000Y685250D01*
X828000Y620250D02*
Y680250D01*
X768000Y620250D02*
Y680250D01*
Y620250D02*
X828000D01*
X768000Y680250D02*
X828000D01*
X807000Y581000D02*
X826000D01*
X807000Y571000D02*
Y581000D01*
X826000Y571000D02*
Y581000D01*
X807000Y571000D02*
X826000D01*
X785500Y568501D02*
X785500Y557502D01*
X785500Y568501D02*
X804000D01*
X785500Y557502D02*
X804000D01*
X859248Y723248D02*
X878248Y723248D01*
X859250Y713250D02*
X878250D01*
X779250Y787750D02*
X805250D01*
Y778250D02*
Y787750D01*
X779250Y741750D02*
X805250D01*
Y751250D01*
X823125Y788390D02*
X854875D01*
X823125Y770610D02*
X854875D01*
X710249Y674499D02*
X729249Y674499D01*
Y684499D01*
X710249Y674499D02*
Y684499D01*
X729249Y684499D01*
X834004Y750503D02*
X853004D01*
X834002Y760501D02*
X853002D01*
X817818Y817997D02*
X831253Y831432D01*
X824182Y838503D02*
X831253Y831432D01*
X810747Y825068D02*
X817818Y817997D01*
X810747Y825068D02*
X824182Y838503D01*
X835318Y835747D02*
X848753Y849182D01*
X841682Y856253D02*
X848753Y849182D01*
X828247Y842818D02*
X835318Y835747D01*
X828247Y842818D02*
X841682Y856253D01*
X803747Y832065D02*
X817182Y845500D01*
X810818Y824997D02*
X824253Y838432D01*
X870318Y870747D02*
X883753Y884182D01*
X876682Y891253D02*
X883753Y884182D01*
X863247Y877818D02*
X870318Y870747D01*
X863247Y877818D02*
X876682Y891253D01*
X710250Y638500D02*
X729250Y638500D01*
Y648500D01*
X710250Y638500D02*
Y648500D01*
X729250Y648500D01*
X853068Y852997D02*
X866503Y866432D01*
X859432Y873503D02*
X866503Y866432D01*
X845997Y860068D02*
X853068Y852997D01*
X845997Y860068D02*
X859432Y873503D01*
X709749Y674499D02*
X735749D01*
X709749Y661499D02*
X735749D01*
X754500Y728500D02*
Y754500D01*
X741500Y728500D02*
Y754500D01*
X838997Y867065D02*
X852432Y880500D01*
X846068Y859997D02*
X859503Y873432D01*
X856247Y884815D02*
X869682Y898250D01*
X863318Y877747D02*
X876753Y891182D01*
X811997Y476682D02*
X825432Y463247D01*
X832503Y470318D01*
X811997Y476682D02*
X819068Y483753D01*
X832503Y470318D01*
X830497Y459182D02*
X843932Y445747D01*
X851003Y452818D01*
X830497Y459182D02*
X837568Y466253D01*
X851003Y452818D01*
X848747Y440932D02*
X862182Y427497D01*
X869253Y434568D01*
X848747Y440932D02*
X855818Y448003D01*
X869253Y434568D01*
X769000Y792252D02*
Y803251D01*
X787500Y803251D01*
X769000Y792252D02*
X787500D01*
X785500Y570502D02*
Y581501D01*
X804000Y581501D01*
X785500Y570502D02*
X804000D01*
X754999Y705998D02*
X755000Y694999D01*
X736500D02*
X755000D01*
X736500Y705998D02*
X754999D01*
X758001Y713150D02*
Y726350D01*
X789999Y713150D02*
Y726350D01*
X766000Y713250D02*
X770000D01*
X766000Y726250D02*
X770000Y726250D01*
X778000D02*
X782000Y726250D01*
X778000Y713250D02*
X782000D01*
X547500Y576250D02*
X552500D01*
X547500D02*
Y581250D01*
X591500Y562000D02*
Y567000D01*
X586500Y562000D02*
X591500D01*
X547500Y723750D02*
X552500D01*
X547500Y718750D02*
Y723750D01*
X591500Y733000D02*
Y738000D01*
X586500D02*
X591500D01*
X821247Y849815D02*
X834682Y863250D01*
X828318Y842747D02*
X841753Y856182D01*
X835002Y713252D02*
X854002Y713252D01*
X835000Y723250D02*
X854000Y723250D01*
X841502Y703252D02*
X860502D01*
X841500Y713250D02*
X860500Y713250D01*
X865748Y713248D02*
X884748D01*
X865750Y703250D02*
X884750Y703250D01*
X709750Y638500D02*
X735750D01*
X709750Y625500D02*
X735750D01*
X811815Y476753D02*
X825250Y463318D01*
X804746Y469682D02*
X818182Y456247D01*
X830315Y459253D02*
X843750Y445818D01*
X823247Y452182D02*
X836682Y438747D01*
X848815Y441003D02*
X862250Y427568D01*
X841747Y433932D02*
X855182Y420497D01*
X866565Y422753D02*
X880000Y409318D01*
X859497Y415682D02*
X872932Y402247D01*
X807000Y568000D02*
X826000D01*
X807000Y558000D02*
Y568000D01*
X826000Y558000D02*
Y568000D01*
X807000Y558000D02*
X826000D01*
X707000Y674500D02*
Y693500D01*
X697000D02*
X707000D01*
X697000Y674500D02*
X707000D01*
X697000D02*
Y693500D01*
X696750Y606250D02*
Y625250D01*
Y606250D02*
X706750D01*
X696750Y625250D02*
X706750D01*
Y606250D02*
Y625250D01*
X736250Y695000D02*
X755250D01*
X736250Y685000D02*
Y695000D01*
X755250Y685000D02*
Y695000D01*
X736250Y685000D02*
X755250Y685000D01*
X797504Y721753D02*
X816504D01*
X797502Y731751D02*
X816502D01*
X816998Y525752D02*
X816998Y506752D01*
X807000Y506750D02*
X807000Y525750D01*
X806843Y534773D02*
Y553773D01*
X816841Y534775D02*
X816841Y553775D01*
X757748Y557502D02*
X757748Y576502D01*
X747750Y576500D02*
X747750Y557500D01*
X753000Y759750D02*
Y785750D01*
X740000Y759750D02*
Y785750D01*
X764498Y735252D02*
Y754252D01*
X754500Y735250D02*
Y754250D01*
X797499Y741749D02*
X816499D01*
X797501Y731751D02*
X816501D01*
X797498Y711748D02*
X816498D01*
X797500Y701750D02*
X816500Y701750D01*
X866747Y422432D02*
X880182Y408997D01*
X887253Y416068D01*
X866747Y422432D02*
X873818Y429503D01*
X887253Y416068D01*
X710249Y651499D02*
X729249D01*
Y661499D01*
X710249Y651499D02*
Y661499D01*
X729249D01*
X710250Y615500D02*
X729250D01*
Y625500D01*
X710250Y615500D02*
Y625500D01*
X729250D01*
X792000Y802750D02*
X811000D01*
X792000Y792750D02*
Y802750D01*
X811000Y792750D02*
Y802750D01*
X792000Y792750D02*
X811000D01*
M02*
