%FSLAX44Y44*%
%MOMM*%
G71*
G01*
G75*
%ADD10C,0.2000*%
%ADD16C,0.5000*%
%ADD18C,0.5000*%
%ADD19C,1.6000*%
%ADD20C,0.9000*%
%ADD21C,0.7000*%
%ADD22C,1.0000*%
%ADD23P,1.1314X4X167.0*%
%ADD24C,0.2540*%
G36*
X282606Y271416D02*
X282129Y270701D01*
X281353Y266799D01*
X282129Y262898D01*
X284339Y259590D01*
X287647Y257380D01*
X291549Y256604D01*
X295450Y257380D01*
X298758Y259590D01*
X300451Y262123D01*
X302451Y261517D01*
X302451Y246682D01*
X300451Y246075D01*
X298758Y248609D01*
X295450Y250819D01*
X291549Y251595D01*
X287647Y250819D01*
X286932Y250341D01*
X281611Y255663D01*
X280618Y256326D01*
X279448Y256559D01*
X279448Y256559D01*
X272419D01*
X271812Y258559D01*
X273359Y259592D01*
X275569Y262900D01*
X276345Y266802D01*
X275569Y270704D01*
X274076Y272939D01*
X275145Y274939D01*
X279083D01*
X282606Y271416D01*
D02*
G37*
G36*
X254443Y275797D02*
X250808Y272162D01*
X250145Y271169D01*
X249912Y269999D01*
X249912Y269999D01*
Y261238D01*
X242837Y254163D01*
X242174Y253171D01*
X241941Y252000D01*
X241941Y252000D01*
Y244517D01*
X238733Y241309D01*
X194000D01*
X192829Y241076D01*
X191837Y240413D01*
X191837Y240413D01*
X182483Y231059D01*
X146151D01*
X145554Y232967D01*
X152280Y237637D01*
X169622Y247927D01*
X187654Y256953D01*
X206283Y264670D01*
X225416Y271038D01*
X244955Y276024D01*
X253516Y277569D01*
X254443Y275797D01*
D02*
G37*
G36*
X282606Y246016D02*
X282129Y245301D01*
X281353Y241399D01*
X282129Y237497D01*
X284339Y234190D01*
X287647Y231979D01*
X291549Y231203D01*
X295450Y231979D01*
X298758Y234190D01*
X300451Y236723D01*
X302451Y236116D01*
Y221282D01*
X300451Y220676D01*
X298758Y223209D01*
X295450Y225419D01*
X291549Y226195D01*
X287647Y225419D01*
X286932Y224942D01*
X281211Y230663D01*
X280218Y231326D01*
X279048Y231559D01*
X279048Y231559D01*
X273018D01*
X272411Y233559D01*
X273359Y234192D01*
X275569Y237500D01*
X276345Y241402D01*
X275569Y245304D01*
X273473Y248441D01*
X273946Y250441D01*
X278181D01*
X282606Y246016D01*
D02*
G37*
G36*
X255587Y201837D02*
X256579Y201174D01*
X257750Y200941D01*
X257750Y200941D01*
X260024D01*
X260631Y198941D01*
X258940Y197812D01*
X256730Y194504D01*
X255954Y190602D01*
X256730Y186700D01*
X258940Y183392D01*
X262248Y181182D01*
X266150Y180406D01*
X270052Y181182D01*
X273360Y183392D01*
X275570Y186700D01*
X276346Y190602D01*
X275570Y194504D01*
X273360Y197812D01*
X271669Y198941D01*
X272276Y200941D01*
X276882D01*
X282607Y195216D01*
X282130Y194501D01*
X281354Y190599D01*
X282130Y186697D01*
X284340Y183389D01*
X287648Y181179D01*
X291549Y180403D01*
X295451Y181179D01*
X298759Y183389D01*
X300451Y185922D01*
X302451Y185315D01*
Y170483D01*
X300451Y169877D01*
X298759Y172408D01*
X295452Y174619D01*
X291550Y175395D01*
X287648Y174619D01*
X284340Y172408D01*
X282130Y169101D01*
X281354Y165199D01*
X282130Y161297D01*
X284340Y157989D01*
X287648Y155779D01*
X291550Y155003D01*
X295452Y155779D01*
X298759Y157989D01*
X300451Y160521D01*
X302451Y159914D01*
X302451Y77499D01*
X294862Y77002D01*
X284898Y75020D01*
X275278Y71754D01*
X266167Y67261D01*
X257720Y61617D01*
X250082Y54918D01*
X243383Y47280D01*
X237739Y38833D01*
X233246Y29722D01*
X229980Y20101D01*
X227998Y10137D01*
X227501Y2549D01*
X192062D01*
X191869Y3070D01*
X191729Y4549D01*
X194710Y6540D01*
X196920Y9848D01*
X197696Y13750D01*
X196920Y17652D01*
X194710Y20960D01*
X191402Y23170D01*
X187500Y23946D01*
X183598Y23170D01*
X180290Y20960D01*
X178080Y17652D01*
X177304Y13750D01*
X178080Y9848D01*
X180290Y6540D01*
X183271Y4549D01*
X183131Y3070D01*
X182938Y2549D01*
X166562D01*
X166369Y3070D01*
X166229Y4549D01*
X169210Y6540D01*
X171420Y9848D01*
X172196Y13750D01*
X171420Y17652D01*
X169210Y20960D01*
X165902Y23170D01*
X162000Y23946D01*
X158098Y23170D01*
X154790Y20960D01*
X152580Y17652D01*
X151804Y13750D01*
X152580Y9848D01*
X154790Y6540D01*
X157771Y4549D01*
X157631Y3070D01*
X157438Y2549D01*
X141062D01*
X140869Y3070D01*
X140729Y4549D01*
X143710Y6540D01*
X145920Y9848D01*
X146696Y13750D01*
X145920Y17652D01*
X143710Y20960D01*
X140402Y23170D01*
X136500Y23946D01*
X132598Y23170D01*
X129290Y20960D01*
X127080Y17652D01*
X126304Y13750D01*
X127080Y9848D01*
X129290Y6540D01*
X132271Y4549D01*
X132131Y3070D01*
X131938Y2549D01*
X115562Y2549D01*
X115369Y3070D01*
X115229Y4549D01*
X118210Y6540D01*
X120420Y9848D01*
X121196Y13750D01*
X120420Y17652D01*
X118210Y20960D01*
X114902Y23170D01*
X111000Y23946D01*
X107098Y23170D01*
X103790Y20960D01*
X101580Y17652D01*
X100804Y13750D01*
X101580Y9848D01*
X103790Y6540D01*
X106771Y4549D01*
X106631Y3070D01*
X106438Y2549D01*
X90062D01*
X89869Y3070D01*
X89729Y4549D01*
X92710Y6540D01*
X94920Y9848D01*
X95696Y13750D01*
X94920Y17652D01*
X92710Y20960D01*
X89402Y23170D01*
X85500Y23946D01*
X81598Y23170D01*
X78290Y20960D01*
X76080Y17652D01*
X75304Y13750D01*
X76080Y9848D01*
X78290Y6540D01*
X81271Y4549D01*
X81131Y3070D01*
X80938Y2549D01*
X64562D01*
X64369Y3070D01*
X64229Y4549D01*
X67210Y6540D01*
X69420Y9848D01*
X70196Y13750D01*
X69420Y17652D01*
X67210Y20960D01*
X63902Y23170D01*
X60000Y23946D01*
X56098Y23170D01*
X52790Y20960D01*
X50580Y17652D01*
X49804Y13750D01*
X50580Y9848D01*
X52790Y6540D01*
X55771Y4549D01*
X55631Y3070D01*
X55438Y2549D01*
X24051D01*
X22662Y3988D01*
X23240Y20152D01*
X25395Y40201D01*
X28976Y60045D01*
X33962Y79584D01*
X40331Y98717D01*
X48047Y117346D01*
X57073Y135378D01*
X67363Y152720D01*
X78863Y169284D01*
X88191Y180859D01*
X90057Y179987D01*
X89941Y179407D01*
X89941Y179407D01*
Y111000D01*
X89941Y111000D01*
X90174Y109830D01*
X90837Y108837D01*
X92855Y106819D01*
X92642Y105750D01*
X93069Y103604D01*
X94285Y101785D01*
X96104Y100569D01*
X98250Y100142D01*
X100396Y100569D01*
X102215Y101785D01*
X103431Y103604D01*
X103858Y105750D01*
X103431Y107896D01*
X102215Y109715D01*
X100396Y110931D01*
X98250Y111358D01*
X97631Y111235D01*
X96059Y112618D01*
Y169391D01*
X96710Y169832D01*
X98059Y170162D01*
X98884Y169337D01*
X98884Y169337D01*
X99876Y168674D01*
X101047Y168441D01*
X101047Y168441D01*
X112000D01*
X112000Y168441D01*
X113170Y168674D01*
X114163Y169337D01*
X118681Y173855D01*
X119750Y173642D01*
X121896Y174069D01*
X123715Y175285D01*
X124931Y177104D01*
X125358Y179250D01*
X124931Y181396D01*
X123715Y183215D01*
X121896Y184431D01*
X119750Y184858D01*
X117604Y184431D01*
X115785Y183215D01*
X114569Y181396D01*
X114142Y179250D01*
X112184Y178875D01*
X111931Y180146D01*
X110946Y181620D01*
X125639Y196313D01*
X127809Y195655D01*
X127819Y195604D01*
X129035Y193785D01*
X130854Y192569D01*
X132115Y192318D01*
X133462Y191319D01*
X134030Y190308D01*
X134319Y188854D01*
X135535Y187035D01*
X137354Y185819D01*
X139500Y185392D01*
X141646Y185819D01*
X141770Y185902D01*
X143819Y185854D01*
X144191Y185297D01*
X145035Y184035D01*
X146854Y182819D01*
X149000Y182392D01*
X151146Y182819D01*
X152965Y184035D01*
X154994Y183471D01*
X155108Y182895D01*
X156324Y181075D01*
X158143Y179860D01*
X160289Y179433D01*
X162435Y179860D01*
X164255Y181075D01*
X165470Y182895D01*
X165897Y185041D01*
X165470Y187187D01*
X164255Y189006D01*
X163309Y189638D01*
Y198483D01*
X165767Y200941D01*
X197250D01*
X197250Y200941D01*
X198421Y201174D01*
X199413Y201837D01*
X206267Y208691D01*
X248733D01*
X255587Y201837D01*
D02*
G37*
G36*
X282606Y220616D02*
X282129Y219901D01*
X281353Y215999D01*
X282129Y212097D01*
X284339Y208790D01*
X287647Y206579D01*
X291549Y205803D01*
X295450Y206579D01*
X298758Y208790D01*
X300451Y211323D01*
X302451Y210716D01*
X302451Y195883D01*
X300451Y195277D01*
X298759Y197809D01*
X295451Y200019D01*
X291549Y200795D01*
X287648Y200019D01*
X286933Y199541D01*
X280312Y206163D01*
X279319Y206826D01*
X278149Y207059D01*
X278148Y207059D01*
X274090D01*
X273537Y209059D01*
X275569Y212100D01*
X276345Y216002D01*
X275569Y219904D01*
X273359Y223211D01*
X273015Y223441D01*
X273622Y225441D01*
X277781D01*
X282606Y220616D01*
D02*
G37*
G36*
X-358879Y170656D02*
X-369849Y163785D01*
X-376669Y159526D01*
X-380899Y166326D01*
X-374019Y170656D01*
X-363119Y177436D01*
X-358879Y170656D01*
D02*
G37*
G36*
X-350400Y157087D02*
X-361370Y150217D01*
X-368190Y145957D01*
X-372420Y152757D01*
X-365540Y157087D01*
X-354640Y163867D01*
X-350400Y157087D01*
D02*
G37*
%LPC*%
G36*
X186000Y184637D02*
X183269Y184094D01*
X180953Y182547D01*
X179406Y180231D01*
X178863Y177500D01*
X179406Y174769D01*
X180953Y172453D01*
X181412Y172147D01*
Y101901D01*
X152599Y73088D01*
X78603D01*
X78297Y73547D01*
X77838Y73853D01*
Y109147D01*
X78297Y109453D01*
X79844Y111769D01*
X80387Y114500D01*
X79844Y117231D01*
X78297Y119547D01*
X75981Y121094D01*
X73250Y121637D01*
X70519Y121094D01*
X68203Y119547D01*
X66656Y117231D01*
X66113Y114500D01*
X66656Y111769D01*
X68203Y109453D01*
X68662Y109147D01*
Y73853D01*
X68203Y73547D01*
X66656Y71231D01*
X66113Y68500D01*
X66656Y65769D01*
X68203Y63453D01*
X70519Y61906D01*
X73250Y61363D01*
X75981Y61906D01*
X78297Y63453D01*
X78603Y63912D01*
X154500D01*
X156256Y64261D01*
X157744Y65256D01*
X189244Y96756D01*
X190239Y98244D01*
X190588Y100000D01*
Y172147D01*
X191047Y172453D01*
X192594Y174769D01*
X193137Y177500D01*
X192594Y180231D01*
X191047Y182547D01*
X188731Y184094D01*
X186000Y184637D01*
D02*
G37*
%LPD*%
D10*
X-427450Y119597D02*
X-413981Y115988D01*
X-455209Y74617D02*
X-441550Y74737D01*
X-469574Y23853D02*
X-456170Y27697D01*
X-468787Y-29340D02*
X-457160Y-21643D01*
X-453248Y-79887D02*
X-444100Y-69363D01*
X-423923Y-124151D02*
X-418030Y-111513D01*
X-383150Y-158168D02*
X-381330Y-144343D01*
X-336610Y-165753D02*
X-334549Y-179544D01*
X-287750Y-173543D02*
X-282078Y-186282D01*
X-238780Y-167263D02*
X-229632Y-177787D01*
X-193550Y-147533D02*
X-181855Y-155128D01*
X-155670Y-115863D02*
X-142266Y-119707D01*
X-128140Y-74743D02*
X-114198Y-74500D01*
X-113540Y-27583D02*
X-100205Y-23506D01*
X-112820Y21677D02*
X-101126Y29271D01*
X-125920Y69447D02*
X-116680Y79890D01*
X-152040Y111347D02*
X-146257Y124035D01*
X-188810Y144227D02*
X-186990Y158051D01*
X-235291Y179307D02*
X-233230Y165517D01*
X-287843Y186002D02*
X-281840Y173417D01*
X-340039Y177710D02*
X-330800Y167267D01*
X142500Y211000D02*
X147500Y216000D01*
X142500Y203750D02*
Y211000D01*
X139500Y194750D02*
X146500Y201750D01*
X137346Y198596D02*
X142500Y203750D01*
X146500Y201750D02*
Y206500D01*
X152000Y212000D01*
X133846Y198596D02*
X137346D01*
X133000Y197750D02*
X133846Y198596D01*
X139500Y191000D02*
Y194750D01*
X152000Y212000D02*
X192186D01*
X252971Y269999D02*
X260970Y277998D01*
X183750Y228000D02*
X194000Y238250D01*
X252971Y259971D02*
Y269999D01*
X245000Y252000D02*
X252971Y259971D01*
X245000Y243250D02*
Y252000D01*
X240000Y238250D02*
X245000Y243250D01*
X194000Y238250D02*
X240000D01*
X186500Y224000D02*
X196000Y233500D01*
X249250Y241250D02*
Y249903D01*
X244625Y228625D02*
X253250Y237250D01*
X241500Y233500D02*
X249250Y241250D01*
X253250Y237250D02*
Y247750D01*
X259000Y253500D01*
X196000Y233500D02*
X241500D01*
X259000Y253500D02*
X279448D01*
X188250Y220000D02*
X196875Y228625D01*
X244625D01*
X248997Y224250D02*
X266149Y241402D01*
X198780Y224250D02*
X248997D01*
X190529Y216000D02*
X198780Y224250D01*
X200436Y220250D02*
X251000D01*
X201845Y216002D02*
X266149D01*
X192186Y212000D02*
X200436Y220250D01*
X193843Y208000D02*
X201845Y216002D01*
X251000Y220250D02*
X259250Y228500D01*
X205000Y211750D02*
X250000D01*
X197250Y204000D02*
X205000Y211750D01*
X250000D02*
X257750Y204000D01*
X259250Y228500D02*
X279048D01*
X291549Y215999D01*
X99875Y180625D02*
X143250Y224000D01*
X112000Y171500D02*
X119750Y179250D01*
X101047Y171500D02*
X112000D01*
X99875Y172672D02*
X101047Y171500D01*
X99875Y172672D02*
Y180625D01*
X149750Y188000D02*
X153500Y191750D01*
X149000Y188000D02*
X149750D01*
X160250Y199750D02*
X164500Y204000D01*
X160250Y185080D02*
Y199750D01*
Y185080D02*
X160289Y185041D01*
X107471Y182471D02*
X145000Y220000D01*
X93000Y179407D02*
X141593Y228000D01*
X183750D01*
X143250Y224000D02*
X186500D01*
X145000Y220000D02*
X188250D01*
X147500Y216000D02*
X190529D01*
X93000Y111000D02*
Y179407D01*
X107471Y178721D02*
Y182471D01*
X153500Y204000D02*
X157500Y208000D01*
X153500Y191750D02*
Y204000D01*
X257750D02*
X278149D01*
X164500D02*
X197250D01*
X157500Y208000D02*
X193843D01*
X106750Y178000D02*
X107471Y178721D01*
X280350Y277998D02*
X291549Y266799D01*
X260970Y277998D02*
X280350D01*
X249250Y249903D02*
X266149Y266802D01*
X279448Y253500D02*
X291549Y241399D01*
X93000Y111000D02*
X98250Y105750D01*
X278149Y204000D02*
X291549Y190599D01*
D16*
X186000Y100000D02*
Y177500D01*
X154500Y68500D02*
X186000Y100000D01*
X73250Y68500D02*
X154500D01*
X73250D02*
Y114500D01*
D18*
X-456239Y27625D02*
D03*
X-427450Y119597D02*
D03*
X-413970Y116027D02*
D03*
X-455209Y74608D02*
D03*
X-441550Y74737D02*
D03*
X-444100Y-69363D02*
D03*
X-457160Y-21643D02*
D03*
X-418030Y-111513D02*
D03*
X-381330Y-144343D02*
D03*
X-287750Y-173543D02*
D03*
X-238780Y-167263D02*
D03*
X-193550Y-147533D02*
D03*
X-155670Y-115863D02*
D03*
X-113540Y-27583D02*
D03*
X-128140Y-74743D02*
D03*
X-112820Y21677D02*
D03*
X-125920Y69447D02*
D03*
X-152040Y111347D02*
D03*
X-188810Y144227D02*
D03*
X-233230Y165517D02*
D03*
X-330800Y167267D02*
D03*
X-376254Y147492D02*
D03*
X-469390Y23612D02*
D03*
X-468630Y-29283D02*
D03*
X-453050Y-79733D02*
D03*
X-423680Y-123893D02*
D03*
X-383140Y-157993D02*
D03*
X-334584Y-179317D02*
D03*
X-282071Y-185999D02*
D03*
X-229757Y-177676D02*
D03*
X-181950Y-154911D02*
D03*
X-142418Y-119622D02*
D03*
X-114436Y-74607D02*
D03*
X-100417Y-23565D02*
D03*
X-101342Y29331D02*
D03*
X-117027Y79907D02*
D03*
X-146367Y123937D02*
D03*
X-186891Y158065D02*
D03*
X-235393Y179267D02*
D03*
X-287887Y185936D02*
D03*
X-340128Y177560D02*
D03*
X-336610Y-165753D02*
D03*
X-382960Y158137D02*
D03*
X-281840Y173417D02*
D03*
D19*
X187500Y13750D02*
D03*
X162000D02*
D03*
X136500D02*
D03*
X111000D02*
D03*
X85500D02*
D03*
X60000D02*
D03*
X266150Y165201D02*
D03*
X266150Y190602D02*
D03*
X266149Y241402D02*
D03*
X266149Y266802D02*
D03*
X266149Y216002D02*
D03*
X291549Y215999D02*
D03*
X291549Y266799D02*
D03*
Y241399D02*
D03*
X291549Y190599D02*
D03*
X291550Y165199D02*
D03*
D20*
X171497Y154744D02*
D03*
X171495Y144247D02*
D03*
X171493Y133749D02*
D03*
X160996Y133751D02*
D03*
X160998Y144248D02*
D03*
X160999Y154746D02*
D03*
X129507Y154751D02*
D03*
X140004Y154749D02*
D03*
X129503Y133756D02*
D03*
X140001Y133754D02*
D03*
X129505Y144253D02*
D03*
X140002Y144252D02*
D03*
X150502Y154748D02*
D03*
X150498Y133752D02*
D03*
X150500Y144250D02*
D03*
D21*
X199250Y151500D02*
D03*
X212500Y156750D02*
D03*
X228250Y161750D02*
D03*
X221500Y247250D02*
D03*
X52000Y87000D02*
D03*
X205000Y142250D02*
D03*
X205500Y103500D02*
D03*
X230750Y263250D02*
D03*
X208750Y257500D02*
D03*
X186750Y249000D02*
D03*
X164750Y237000D02*
D03*
X133000Y197750D02*
D03*
X106750Y178000D02*
D03*
X119750Y179250D02*
D03*
X149000Y188000D02*
D03*
X160289Y185041D02*
D03*
X139500Y191000D02*
D03*
X190750Y57250D02*
D03*
X202750D02*
D03*
X159000Y56750D02*
D03*
X134250Y56250D02*
D03*
X90750Y54750D02*
D03*
X117000Y56000D02*
D03*
X63750Y59000D02*
D03*
X98250Y105750D02*
D03*
D22*
X73250Y68500D02*
D03*
Y114500D02*
D03*
X186000Y177500D02*
D03*
D23*
X-366921Y151462D02*
D03*
X-375399Y165031D02*
D03*
X-364390Y171935D02*
D03*
X-355912Y158366D02*
D03*
D24*
X-376254Y147492D02*
X-370933Y150883D01*
X-382960Y158137D02*
X-377638Y161527D01*
M02*
